<svg xmlns="http://www.w3.org/2000/svg" xmlns:xlink="http://www.w3.org/1999/xlink" width="500" zoomAndPan="magnify" viewBox="0 0 375 374.999991" height="500" preserveAspectRatio="xMidYMid meet" version="1.0"><defs><g/><clipPath id="1d6c2d86d3"><path d="M 0 109.628906 L 375 109.628906 L 375 164 L 0 164 Z M 0 109.628906 " clip-rule="nonzero"/></clipPath><clipPath id="95507b4a9c"><path d="M 252 157 L 375 157 L 375 187.628906 L 252 187.628906 Z M 252 157 " clip-rule="nonzero"/></clipPath></defs><g clip-path="url(#1d6c2d86d3)"><path fill="#f7f8fd" d="M 345.734375 148.804688 C 340.960938 147.902344 336.230469 146.71875 331.578125 145.269531 C 326.933594 143.804688 322.335938 142.128906 317.792969 140.28125 C 313.25 138.429688 308.738281 136.449219 304.214844 134.390625 L 290.539062 128.121094 C 285.921875 126.023438 281.226562 123.957031 276.386719 122 C 275.167969 121.515625 273.964844 121.019531 272.726562 120.558594 L 270.878906 119.855469 L 269.011719 119.171875 C 267.773438 118.710938 266.492188 118.289062 265.238281 117.847656 C 264.605469 117.632812 263.957031 117.429688 263.320312 117.21875 C 262.679688 117.011719 262.046875 116.796875 261.394531 116.601562 C 260.097656 116.210938 258.804688 115.808594 257.484375 115.449219 C 256.824219 115.269531 256.171875 115.078125 255.507812 114.902344 L 253.511719 114.402344 C 252.175781 114.070312 250.851562 113.722656 249.5 113.449219 L 247.476562 113.015625 C 246.800781 112.871094 246.132812 112.71875 245.449219 112.605469 L 241.367188 111.871094 L 237.253906 111.257812 C 236.910156 111.207031 236.570312 111.152344 236.226562 111.109375 L 235.191406 110.988281 L 233.125 110.746094 C 232.433594 110.667969 231.75 110.570312 231.058594 110.515625 L 228.984375 110.332031 C 223.453125 109.847656 217.902344 109.625 212.375 109.675781 C 206.847656 109.734375 201.34375 110.007812 195.898438 110.5 C 184.992188 111.480469 174.328125 113.328125 163.957031 115.71875 C 153.597656 118.140625 143.527344 121.121094 133.78125 124.542969 C 128.90625 126.257812 124.09375 128.058594 119.378906 129.980469 C 114.652344 131.894531 110.003906 133.898438 105.4375 135.996094 C 115.21875 132.722656 125.070312 129.625 135.105469 126.96875 C 145.117188 124.277344 155.296875 122.007812 165.574219 120.234375 C 170.714844 119.351562 175.890625 118.640625 181.070312 118.054688 C 183.660156 117.75 186.261719 117.527344 188.855469 117.300781 L 192.753906 117.035156 C 194.054688 116.949219 195.355469 116.90625 196.65625 116.839844 C 201.851562 116.625 207.042969 116.574219 212.207031 116.753906 L 216.070312 116.929688 C 217.355469 117.011719 218.632812 117.113281 219.914062 117.203125 L 220.875 117.273438 L 221.832031 117.367188 L 223.742188 117.554688 C 224.375 117.617188 225.015625 117.667969 225.648438 117.746094 L 227.546875 117.984375 L 229.441406 118.222656 C 230.074219 118.292969 230.695312 118.410156 231.324219 118.503906 L 233.203125 118.796875 L 234.140625 118.941406 C 234.453125 118.988281 234.761719 119.054688 235.070312 119.109375 L 238.785156 119.808594 L 242.449219 120.609375 C 243.066406 120.734375 243.664062 120.902344 244.265625 121.050781 L 246.074219 121.503906 C 247.289062 121.789062 248.464844 122.148438 249.652344 122.484375 L 251.433594 122.992188 C 252.023438 123.167969 252.605469 123.359375 253.1875 123.542969 C 254.363281 123.902344 255.515625 124.308594 256.679688 124.703125 C 265.949219 127.910156 274.808594 132.015625 283.695312 136.328125 C 292.589844 140.640625 301.535156 145.1875 311.136719 149.285156 C 312.96875 150.066406 314.832031 150.832031 316.71875 151.574219 C 311.035156 152.011719 305.328125 152.339844 299.609375 152.582031 L 294.179688 152.785156 L 288.742188 152.914062 C 286.929688 152.96875 285.113281 152.96875 283.300781 152.992188 L 280.574219 153.023438 C 279.667969 153.03125 278.757812 153.023438 277.851562 153.023438 C 270.582031 153.054688 263.300781 152.902344 256.011719 152.6875 C 248.722656 152.472656 241.425781 152.132812 234.125 151.730469 C 226.824219 151.320312 219.519531 150.855469 212.207031 150.3125 C 197.582031 149.265625 182.941406 147.996094 168.257812 146.757812 C 153.574219 145.519531 138.84375 144.28125 124.058594 143.28125 L 118.511719 142.910156 C 116.664062 142.785156 114.8125 142.671875 112.957031 142.558594 C 109.25 142.34375 105.53125 142.152344 101.808594 141.984375 C 99.949219 141.894531 98.082031 141.832031 96.21875 141.753906 L 90.617188 141.578125 C 88.746094 141.542969 86.878906 141.503906 85.007812 141.484375 L 82.195312 141.464844 C 81.261719 141.453125 80.324219 141.453125 79.386719 141.460938 C 77.511719 141.472656 75.640625 141.46875 73.761719 141.515625 L 70.949219 141.570312 C 70.015625 141.589844 69.074219 141.628906 68.136719 141.660156 L 65.328125 141.769531 L 62.515625 141.917969 C 60.644531 142.003906 58.773438 142.148438 56.90625 142.277344 C 49.425781 142.820312 41.992188 143.726562 34.679688 145.011719 C 27.367188 146.316406 20.203125 148.042969 13.324219 150.238281 C 6.449219 152.429688 -0.15625 155.074219 -6.25 158.234375 C 6.925781 153.152344 21.140625 149.972656 35.542969 148.398438 C 49.976562 146.789062 64.601562 146.757812 79.152344 147.421875 C 80.0625 147.457031 80.972656 147.503906 81.882812 147.558594 L 84.613281 147.714844 C 86.433594 147.820312 88.253906 147.960938 90.074219 148.074219 L 95.53125 148.480469 C 97.351562 148.636719 99.171875 148.777344 100.988281 148.941406 C 104.628906 149.265625 108.269531 149.609375 111.914062 149.984375 C 115.554688 150.335938 119.207031 150.71875 122.851562 151.097656 C 137.433594 152.65625 152.019531 154.332031 166.652344 155.964844 C 195.910156 159.222656 225.417969 162.28125 255.347656 163.4375 C 270.300781 164.027344 285.355469 164.105469 300.410156 163.484375 C 307.9375 163.152344 315.464844 162.6875 322.96875 161.980469 C 330.472656 161.269531 337.949219 160.355469 345.378906 159.238281 L 376.398438 154.574219 Z M 345.734375 148.804688 " fill-opacity="1" fill-rule="nonzero"/></g><g clip-path="url(#95507b4a9c)"><path fill="#ff1616" d="M 263.433594 180.59375 C 274.992188 183.125 286.710938 184.992188 298.496094 186.074219 C 313.273438 187.429688 328.328125 187.621094 343.015625 185.246094 C 350.160156 184.089844 357.234375 182.300781 363.929688 179.527344 C 369.417969 177.25 379.8125 173.550781 380.800781 166.710938 C 381.152344 164.289062 381.246094 160.621094 378.203125 158.730469 C 374.28125 156.296875 369.023438 158.753906 365.351562 160.148438 C 360.96875 161.816406 356.652344 163.59375 351.917969 164.890625 C 346.007812 166.511719 339.894531 167.859375 333.714844 169.054688 C 326.753906 170.40625 319.667969 171.621094 312.507812 172.527344 C 316.039062 173.113281 321.910156 173.90625 325.085938 174.304688 C 328.882812 174.777344 332.699219 175.191406 336.535156 175.523438 C 340.570312 175.875 344.742188 176.136719 348.914062 176.273438 C 330.34375 180.007812 298.710938 183.28125 252.714844 177.992188 C 256.328125 178.921875 259.941406 179.828125 263.433594 180.59375 Z M 263.433594 180.59375 " fill-opacity="1" fill-rule="nonzero"/></g><g fill="#f7f8fd" fill-opacity="1"><g transform="translate(18.844084, 214.900577)"><g><path d="M 25.519531 -21.339844 C 25.1875 -22.746094 24.617188 -23.914062 23.914062 -24.851562 C 23.179688 -25.753906 22.210938 -26.457031 21.074219 -26.890625 C 19.933594 -27.328125 18.597656 -27.5625 17.023438 -27.5625 L 5.351562 -27.5625 L 5.351562 -27.527344 C 4.382812 -27.460938 3.546875 -26.925781 3.042969 -26.125 C 2.910156 -25.855469 2.777344 -25.554688 2.710938 -25.285156 L 2.675781 -2.441406 C 2.742188 -2.074219 2.875 -1.707031 3.042969 -1.40625 C 3.578125 -0.5 4.550781 0.0351562 5.585938 0.0351562 L 17.023438 0.0351562 C 18.597656 0.0351562 19.96875 -0.199219 21.074219 -0.636719 C 22.210938 -1.070312 23.179688 -1.773438 23.914062 -2.710938 C 24.617188 -3.613281 25.1875 -4.78125 25.519531 -6.1875 C 25.855469 -7.59375 26.023438 -9.265625 26.023438 -11.136719 L 26.023438 -16.390625 C 26.023438 -18.261719 25.855469 -19.933594 25.519531 -21.339844 Z M 7.59375 -5.117188 L 7.59375 -22.410156 C 7.59375 -22.542969 7.625 -22.609375 7.660156 -22.609375 L 16.925781 -22.609375 C 17.695312 -22.609375 18.363281 -22.511719 18.898438 -22.308594 C 19.433594 -22.109375 19.835938 -21.839844 20.136719 -21.40625 C 20.46875 -20.972656 20.703125 -20.402344 20.839844 -19.699219 C 20.972656 -18.933594 21.074219 -17.996094 21.074219 -16.890625 L 21.074219 -10.636719 C 21.074219 -9.53125 20.972656 -8.597656 20.839844 -7.859375 C 20.703125 -7.125 20.46875 -6.554688 20.136719 -6.121094 C 19.835938 -5.71875 19.433594 -5.417969 18.898438 -5.21875 C 18.363281 -5.015625 17.695312 -4.949219 16.925781 -4.949219 L 7.625 -4.949219 C 7.625 -4.949219 7.59375 -4.984375 7.59375 -5.117188 Z M 7.59375 -5.117188 "/></g></g></g><g fill="#f7f8fd" fill-opacity="1"><g transform="translate(47.530634, 214.900577)"><g><path d="M 25.488281 -19.566406 C 25.488281 -19.535156 25.488281 -19.5 25.488281 -19.46875 C 25.488281 -19.433594 25.488281 -19.398438 25.488281 -19.367188 Z M 26.125 -1.4375 L 20.269531 -11.472656 C 21.910156 -11.671875 23.179688 -12.375 24.015625 -13.511719 C 24.953125 -14.882812 25.453125 -16.859375 25.488281 -19.46875 C 25.453125 -22.074219 24.953125 -24.050781 24.015625 -25.421875 C 23.011719 -26.859375 21.339844 -27.5625 19.066406 -27.5625 L 3.644531 -27.5625 C 3.34375 -27.5625 2.675781 -27.460938 2.675781 -26.390625 L 2.675781 -23.75 C 2.675781 -22.710938 3.34375 -22.609375 3.644531 -22.609375 L 18.195312 -22.609375 C 19.066406 -22.609375 19.632812 -22.375 19.96875 -21.875 C 20.335938 -21.375 20.503906 -20.570312 20.503906 -19.46875 C 20.503906 -18.363281 20.335938 -17.558594 19.96875 -17.058594 C 19.632812 -16.558594 19.066406 -16.324219 18.195312 -16.324219 L 3.644531 -16.324219 C 3.34375 -16.324219 2.675781 -16.222656 2.675781 -15.183594 L 2.675781 -1.136719 C 2.675781 -0.101562 3.34375 0.0351562 3.644531 0.0351562 L 6.691406 0.0351562 C 6.992188 0.0351562 7.625 -0.101562 7.625 -1.136719 L 7.625 -11.371094 L 14.683594 -11.371094 L 20.738281 -0.636719 C 20.871094 -0.433594 20.972656 -0.269531 21.105469 -0.167969 C 21.273438 -0.0351562 21.507812 0.0351562 21.808594 0.0351562 L 25.488281 0.0351562 C 25.890625 0.0351562 26.191406 -0.234375 26.257812 -0.636719 C 26.289062 -0.96875 26.257812 -1.238281 26.125 -1.4375 Z M 26.125 -1.4375 "/></g></g></g><g fill="#f7f8fd" fill-opacity="1"><g transform="translate(76.484658, 214.900577)"><g><path d="M 6.691406 -27.5625 L 3.613281 -27.5625 C 3.34375 -27.5625 2.675781 -27.425781 2.675781 -26.390625 L 2.675781 -1.136719 C 2.675781 -0.101562 3.34375 0.0351562 3.613281 0.0351562 L 6.691406 0.0351562 C 6.957031 0.0351562 7.625 -0.101562 7.625 -1.136719 L 7.625 -26.390625 C 7.625 -27.425781 6.957031 -27.5625 6.691406 -27.5625 Z M 6.691406 -27.5625 "/></g></g></g><g fill="#f7f8fd" fill-opacity="1"><g transform="translate(86.781761, 214.900577)"><g><path d="M 19.066406 -27.5625 L 3.613281 -27.5625 C 3.34375 -27.5625 2.675781 -27.460938 2.675781 -26.390625 L 2.675781 -23.75 C 2.675781 -22.710938 3.34375 -22.609375 3.613281 -22.609375 L 18.195312 -22.609375 C 19.03125 -22.609375 19.632812 -22.375 19.96875 -21.875 C 20.335938 -21.375 20.503906 -20.570312 20.503906 -19.46875 C 20.503906 -18.363281 20.335938 -17.558594 19.96875 -17.058594 C 19.632812 -16.558594 19.03125 -16.324219 18.195312 -16.324219 L 3.613281 -16.324219 C 3.34375 -16.324219 2.675781 -16.222656 2.675781 -15.183594 L 2.675781 -1.136719 C 2.675781 -0.101562 3.34375 0.0351562 3.613281 0.0351562 L 6.691406 0.0351562 C 6.957031 0.0351562 7.625 -0.101562 7.625 -1.136719 L 7.625 -11.371094 L 19.066406 -11.40625 C 21.339844 -11.40625 22.980469 -12.109375 23.984375 -13.511719 C 24.984375 -14.917969 25.453125 -16.925781 25.453125 -19.566406 L 25.453125 -19.367188 C 25.453125 -22.042969 24.984375 -24.050781 23.984375 -25.421875 C 22.980469 -26.859375 21.339844 -27.5625 19.066406 -27.5625 Z M 19.066406 -27.5625 "/></g></g></g><g fill="#f7f8fd" fill-opacity="1"><g transform="translate(114.899909, 214.900577)"><g/></g></g><g fill="#f7f8fd" fill-opacity="1"><g transform="translate(132.084691, 214.900577)"><g><path d="M 25.519531 -21.339844 C 25.1875 -22.746094 24.617188 -23.914062 23.914062 -24.851562 C 23.179688 -25.753906 22.210938 -26.457031 21.074219 -26.890625 C 19.933594 -27.328125 18.597656 -27.5625 17.023438 -27.5625 L 5.351562 -27.5625 L 5.351562 -27.527344 C 4.382812 -27.460938 3.546875 -26.925781 3.042969 -26.125 C 2.910156 -25.855469 2.777344 -25.554688 2.710938 -25.285156 L 2.675781 -2.441406 C 2.742188 -2.074219 2.875 -1.707031 3.042969 -1.40625 C 3.578125 -0.5 4.550781 0.0351562 5.585938 0.0351562 L 17.023438 0.0351562 C 18.597656 0.0351562 19.96875 -0.199219 21.074219 -0.636719 C 22.210938 -1.070312 23.179688 -1.773438 23.914062 -2.710938 C 24.617188 -3.613281 25.1875 -4.78125 25.519531 -6.1875 C 25.855469 -7.59375 26.023438 -9.265625 26.023438 -11.136719 L 26.023438 -16.390625 C 26.023438 -18.261719 25.855469 -19.933594 25.519531 -21.339844 Z M 7.59375 -5.117188 L 7.59375 -22.410156 C 7.59375 -22.542969 7.625 -22.609375 7.660156 -22.609375 L 16.925781 -22.609375 C 17.695312 -22.609375 18.363281 -22.511719 18.898438 -22.308594 C 19.433594 -22.109375 19.835938 -21.839844 20.136719 -21.40625 C 20.46875 -20.972656 20.703125 -20.402344 20.839844 -19.699219 C 20.972656 -18.933594 21.074219 -17.996094 21.074219 -16.890625 L 21.074219 -10.636719 C 21.074219 -9.53125 20.972656 -8.597656 20.839844 -7.859375 C 20.703125 -7.125 20.46875 -6.554688 20.136719 -6.121094 C 19.835938 -5.71875 19.433594 -5.417969 18.898438 -5.21875 C 18.363281 -5.015625 17.695312 -4.949219 16.925781 -4.949219 L 7.625 -4.949219 C 7.625 -4.949219 7.59375 -4.984375 7.59375 -5.117188 Z M 7.59375 -5.117188 "/></g></g></g><g fill="#f7f8fd" fill-opacity="1"><g transform="translate(160.771246, 214.900577)"><g><path d="M 22.777344 -5.988281 L 11.003906 -5.988281 C 10.300781 -5.988281 9.734375 -6.085938 9.265625 -6.222656 C 8.832031 -6.386719 8.53125 -6.621094 8.261719 -6.957031 C 7.996094 -7.324219 7.792969 -7.828125 7.691406 -8.460938 C 7.660156 -8.628906 7.660156 -8.863281 7.625 -9.03125 C 7.625 -9.03125 7.660156 -11.4375 7.691406 -11.4375 L 22.644531 -11.4375 C 22.910156 -11.4375 23.582031 -11.574219 23.582031 -12.609375 L 23.582031 -15.253906 C 23.582031 -16.289062 22.910156 -16.390625 22.644531 -16.390625 L 5.386719 -16.355469 C 4.414062 -16.289062 3.578125 -15.789062 3.109375 -14.953125 C 2.945312 -14.683594 2.808594 -14.417969 2.742188 -14.113281 L 2.675781 -9.902344 L 2.675781 -9.734375 C 2.710938 -8.160156 2.875 -6.824219 3.109375 -5.71875 C 3.410156 -4.382812 3.914062 -3.277344 4.550781 -2.441406 C 5.21875 -1.570312 6.085938 -0.96875 7.15625 -0.601562 C 8.195312 -0.199219 9.433594 -0.0351562 10.902344 -0.0351562 L 22.777344 -0.0351562 C 23.078125 -0.0351562 23.75 -0.132812 23.75 -1.171875 L 23.75 -4.851562 C 23.75 -5.886719 23.078125 -5.988281 22.777344 -5.988281 Z M 22.8125 -27.628906 L 3.578125 -27.628906 C 3.3125 -27.628906 2.675781 -27.496094 2.675781 -26.425781 L 2.675781 -23.816406 C 2.675781 -22.777344 3.3125 -22.679688 3.578125 -22.679688 L 22.8125 -22.644531 C 23.078125 -22.644531 23.75 -22.777344 23.75 -23.816406 L 23.75 -26.457031 C 23.75 -27.496094 23.078125 -27.628906 22.8125 -27.628906 Z M 22.8125 -27.628906 "/></g></g></g><g fill="#f7f8fd" fill-opacity="1"><g transform="translate(187.184203, 214.900577)"><g><path d="M 25.789062 -27.5625 L 3.644531 -27.5625 C 3.34375 -27.5625 2.675781 -27.460938 2.675781 -26.425781 L 2.675781 -23.816406 C 2.675781 -22.710938 3.34375 -22.609375 3.644531 -22.609375 L 12.242188 -22.609375 L 12.242188 -1.136719 C 12.242188 -0.101562 12.910156 0 13.179688 0 L 16.257812 0 C 16.558594 0 17.191406 -0.101562 17.191406 -1.136719 L 17.191406 -22.609375 L 25.789062 -22.609375 C 26.089844 -22.609375 26.757812 -22.710938 26.757812 -23.816406 L 26.757812 -26.425781 C 26.757812 -27.460938 26.089844 -27.5625 25.789062 -27.5625 Z M 25.789062 -27.5625 "/></g></g></g><g fill="#f7f8fd" fill-opacity="1"><g transform="translate(216.60633, 214.900577)"><g><path d="M 20.605469 -24.449219 C 20.539062 -24.617188 20.46875 -24.820312 20.402344 -24.953125 C 19.867188 -26.691406 18.261719 -27.929688 16.421875 -27.929688 C 15.585938 -27.929688 14.785156 -27.695312 14.113281 -27.226562 C 13.914062 -27.125 13.746094 -26.992188 13.613281 -26.890625 C 13.113281 -26.457031 12.609375 -25.65625 12.140625 -24.449219 L 2.808594 -1.269531 C 2.710938 -0.96875 2.675781 -0.667969 2.742188 -0.46875 C 2.777344 -0.269531 2.945312 0.0351562 3.480469 0.0351562 L 7.15625 0.0351562 C 7.59375 0.0351562 7.925781 -0.234375 8.09375 -0.667969 L 10 -5.453125 L 17.328125 -5.453125 C 17.695312 -5.453125 18.027344 -5.621094 18.195312 -5.921875 C 18.398438 -6.1875 18.429688 -6.554688 18.328125 -6.890625 L 17.125 -9.867188 C 16.957031 -10.269531 16.589844 -10.535156 16.15625 -10.535156 L 12.007812 -10.535156 L 16.289062 -21.375 C 16.324219 -21.441406 16.355469 -21.472656 16.355469 -21.472656 L 16.488281 -21.472656 C 16.488281 -21.472656 16.488281 -21.472656 16.523438 -21.40625 L 24.820312 -0.703125 C 24.984375 -0.234375 25.320312 0.0351562 25.789062 0.0351562 L 29.367188 0.0351562 C 29.902344 0.0351562 30.035156 -0.300781 30.101562 -0.46875 C 30.171875 -0.667969 30.136719 -0.96875 30.003906 -1.269531 Z M 20.605469 -24.449219 "/></g></g></g><g fill="#f7f8fd" fill-opacity="1"><g transform="translate(249.438872, 214.900577)"><g><path d="M 6.691406 -27.5625 L 3.613281 -27.5625 C 3.34375 -27.5625 2.675781 -27.425781 2.675781 -26.390625 L 2.675781 -1.136719 C 2.675781 -0.101562 3.34375 0.0351562 3.613281 0.0351562 L 6.691406 0.0351562 C 6.957031 0.0351562 7.625 -0.101562 7.625 -1.136719 L 7.625 -26.390625 C 7.625 -27.425781 6.957031 -27.5625 6.691406 -27.5625 Z M 6.691406 -27.5625 "/></g></g></g><g fill="#f7f8fd" fill-opacity="1"><g transform="translate(259.735979, 214.900577)"><g><path d="M 21.976562 -4.949219 L 11.105469 -4.949219 C 10.402344 -4.949219 9.832031 -5.015625 9.367188 -5.183594 C 8.964844 -5.316406 8.628906 -5.550781 8.394531 -5.921875 C 8.128906 -6.289062 7.925781 -6.789062 7.828125 -7.390625 C 7.691406 -8.0625 7.660156 -8.898438 7.660156 -9.902344 L 7.660156 -26.390625 C 7.660156 -27.460938 6.992188 -27.5625 6.722656 -27.5625 L 3.644531 -27.5625 C 3.34375 -27.5625 2.675781 -27.460938 2.675781 -26.390625 L 2.675781 -10.46875 C 2.675781 -8.597656 2.84375 -6.992188 3.144531 -5.6875 C 3.445312 -4.347656 3.914062 -3.246094 4.582031 -2.410156 C 5.25 -1.539062 6.121094 -0.902344 7.191406 -0.535156 C 8.195312 -0.167969 9.464844 0.0351562 10.9375 0.0351562 L 21.976562 0.0351562 C 22.277344 0.0351562 22.910156 -0.101562 22.910156 -1.136719 L 22.910156 -3.78125 C 22.910156 -4.816406 22.277344 -4.949219 21.976562 -4.949219 Z M 21.976562 -4.949219 "/></g></g></g><g fill="#f7f8fd" fill-opacity="1"><g transform="translate(285.313044, 214.900577)"><g><path d="M 6.691406 -27.5625 L 3.613281 -27.5625 C 3.34375 -27.5625 2.675781 -27.425781 2.675781 -26.390625 L 2.675781 -1.136719 C 2.675781 -0.101562 3.34375 0.0351562 3.613281 0.0351562 L 6.691406 0.0351562 C 6.957031 0.0351562 7.625 -0.101562 7.625 -1.136719 L 7.625 -26.390625 C 7.625 -27.425781 6.957031 -27.5625 6.691406 -27.5625 Z M 6.691406 -27.5625 "/></g></g></g><g fill="#f7f8fd" fill-opacity="1"><g transform="translate(295.610135, 214.900577)"><g><path d="M 26.355469 -27.5625 L 23.378906 -27.5625 C 23.078125 -27.5625 22.445312 -27.460938 22.445312 -26.390625 L 22.445312 -6.289062 C 22.445312 -6.253906 22.445312 -6.253906 22.445312 -6.222656 L 22.277344 -6.222656 C 22.242188 -6.222656 22.210938 -6.222656 22.175781 -6.320312 L 11.605469 -25.121094 C 11.339844 -25.621094 11.105469 -26.023438 10.871094 -26.324219 C 10.636719 -26.660156 10.402344 -26.925781 10.167969 -27.09375 C 9.902344 -27.292969 9.601562 -27.425781 9.230469 -27.496094 C 8.898438 -27.527344 8.496094 -27.5625 8.0625 -27.5625 L 5.550781 -27.5625 C 4.582031 -27.5625 3.847656 -27.226562 3.378906 -26.625 C 2.910156 -25.988281 2.675781 -24.886719 2.675781 -23.246094 L 2.675781 -1.136719 C 2.675781 -0.101562 3.34375 0.0351562 3.644531 0.0351562 L 6.621094 0.0351562 C 6.921875 0.0351562 7.558594 -0.101562 7.558594 -1.136719 L 7.558594 -21.238281 C 7.558594 -21.273438 7.558594 -21.304688 7.558594 -21.304688 L 7.726562 -21.304688 C 7.726562 -21.304688 7.761719 -21.304688 7.828125 -21.207031 L 18.429688 -2.410156 C 18.699219 -1.875 18.964844 -1.472656 19.199219 -1.171875 C 19.433594 -0.835938 19.667969 -0.601562 19.933594 -0.433594 C 20.203125 -0.234375 20.503906 -0.132812 20.839844 -0.0664062 C 21.140625 0 21.507812 0.0351562 21.976562 0.0351562 L 24.417969 0.0351562 C 25.386719 0.0351562 26.125 -0.300781 26.589844 -0.9375 C 27.058594 -1.539062 27.292969 -2.640625 27.292969 -4.28125 L 27.292969 -26.390625 C 27.292969 -27.460938 26.625 -27.5625 26.355469 -27.5625 Z M 26.355469 -27.5625 "/></g></g></g><g fill="#f7f8fd" fill-opacity="1"><g transform="translate(325.567212, 214.900577)"><g><path d="M 25.320312 -27.5625 L 10.9375 -27.5625 C 9.464844 -27.5625 8.195312 -27.359375 7.15625 -26.992188 C 6.121094 -26.589844 5.21875 -25.957031 4.582031 -25.121094 C 3.914062 -24.25 3.410156 -23.179688 3.109375 -21.839844 C 2.808594 -20.539062 2.675781 -18.933594 2.675781 -17.09375 L 2.675781 -10.46875 C 2.675781 -8.597656 2.808594 -6.992188 3.109375 -5.652344 C 3.410156 -4.347656 3.914062 -3.246094 4.582031 -2.375 C 5.25 -1.539062 6.121094 -0.902344 7.15625 -0.535156 C 8.195312 -0.167969 9.464844 0.0351562 10.9375 0.0351562 L 22.375 0.0351562 C 23.613281 0.0351562 24.585938 -0.46875 25.253906 -1.4375 C 25.890625 -2.375 26.222656 -3.945312 26.222656 -6.1875 L 26.222656 -15.152344 C 26.222656 -16.421875 25.488281 -16.625 25.054688 -16.625 L 13.210938 -16.625 C 12.945312 -16.625 12.277344 -16.488281 12.277344 -15.417969 L 12.277344 -12.878906 C 12.277344 -11.773438 12.945312 -11.671875 13.210938 -11.671875 L 21.539062 -11.671875 C 21.539062 -11.671875 21.574219 -6.992188 21.574219 -6.992188 C 21.574219 -5.953125 21.40625 -5.519531 21.273438 -5.316406 C 21.105469 -5.050781 20.839844 -4.949219 20.46875 -4.949219 L 11.105469 -4.949219 C 10.402344 -4.949219 9.800781 -5.015625 9.367188 -5.183594 C 8.929688 -5.316406 8.628906 -5.550781 8.363281 -5.921875 C 8.128906 -6.253906 7.925781 -6.757812 7.828125 -7.390625 C 7.691406 -8.0625 7.625 -8.898438 7.625 -9.902344 L 7.625 -17.660156 C 7.625 -18.664062 7.691406 -19.5 7.828125 -20.167969 C 7.925781 -20.769531 8.128906 -21.273438 8.363281 -21.640625 C 8.628906 -21.976562 8.929688 -22.210938 9.367188 -22.375 C 9.800781 -22.511719 10.402344 -22.609375 11.105469 -22.609375 L 25.320312 -22.609375 C 25.589844 -22.609375 26.257812 -22.710938 26.257812 -23.78125 L 26.257812 -26.390625 C 26.257812 -27.425781 25.589844 -27.5625 25.320312 -27.5625 Z M 25.320312 -27.5625 "/></g></g></g><g fill="#ff1616" fill-opacity="1"><g transform="translate(56.138437, 236.512781)"><g><path d="M 18.941406 -13.441406 L 18.941406 -15.976562 C 18.941406 -16.242188 18.710938 -16.472656 18.449219 -16.472656 L 15.976562 -16.472656 C 15.714844 -16.472656 15.484375 -16.242188 15.484375 -15.976562 L 15.484375 -14 L 13.113281 -9.882812 L 4.449219 -9.882812 L 4.449219 -15.976562 C 4.449219 -16.242188 4.214844 -16.472656 3.953125 -16.472656 L 1.484375 -16.472656 C 1.21875 -16.472656 0.988281 -16.242188 0.988281 -15.976562 L 0.988281 -0.496094 C 0.988281 -0.230469 1.21875 0 1.484375 0 L 3.953125 0 C 4.214844 0 4.449219 -0.230469 4.449219 -0.496094 L 4.449219 -6.359375 L 13.34375 -6.359375 C 13.574219 -6.359375 13.738281 -6.292969 13.902344 -6.128906 L 15.21875 -4.742188 L 15.382812 -4.546875 C 15.449219 -4.449219 15.484375 -4.347656 15.484375 -4.214844 L 15.484375 -0.496094 C 15.484375 -0.230469 15.714844 0 15.976562 0 L 18.449219 0 C 18.710938 0 18.941406 -0.230469 18.941406 -0.496094 L 18.941406 -5.632812 C 18.941406 -6.0625 18.808594 -6.359375 18.546875 -6.621094 L 16.4375 -8.695312 L 18.746094 -12.714844 C 18.875 -12.914062 18.941406 -13.210938 18.941406 -13.441406 Z M 18.941406 -13.441406 "/></g></g></g><g fill="#ff1616" fill-opacity="1"><g transform="translate(82.654561, 236.512781)"><g><path d="M 18.578125 -13.113281 L 15.679688 -16.078125 C 15.417969 -16.339844 15.121094 -16.472656 14.691406 -16.472656 L 5.238281 -16.472656 C 4.808594 -16.472656 4.511719 -16.339844 4.25 -16.078125 L 1.351562 -13.113281 C 1.121094 -12.878906 0.988281 -12.585938 0.988281 -12.253906 L 0.988281 -0.496094 C 0.988281 -0.230469 1.21875 0 1.484375 0 L 3.691406 0 C 3.953125 0 4.183594 -0.230469 4.183594 -0.496094 L 4.183594 -5.402344 L 15.746094 -5.402344 L 15.746094 -0.496094 C 15.746094 -0.230469 15.976562 0 16.242188 0 L 18.449219 0 C 18.710938 0 18.941406 -0.230469 18.941406 -0.496094 L 18.941406 -12.253906 C 18.941406 -12.585938 18.808594 -12.878906 18.578125 -13.113281 Z M 4.183594 -8.269531 L 4.183594 -11.398438 C 4.183594 -11.628906 4.25 -11.792969 4.414062 -11.957031 L 5.46875 -12.945312 L 5.667969 -13.113281 C 5.730469 -13.175781 5.832031 -13.210938 5.996094 -13.210938 L 13.933594 -13.210938 C 14.066406 -13.210938 14.164062 -13.175781 14.265625 -13.113281 L 14.460938 -12.945312 L 15.515625 -11.957031 C 15.679688 -11.792969 15.746094 -11.628906 15.746094 -11.398438 L 15.746094 -8.269531 Z M 4.183594 -8.269531 "/></g></g></g><g fill="#ff1616" fill-opacity="1"><g transform="translate(109.170684, 236.512781)"><g><path d="M 0.988281 -0.496094 C 0.988281 -0.230469 1.21875 0 1.484375 0 L 3.691406 0 C 3.953125 0 4.183594 -0.230469 4.183594 -0.496094 L 4.183594 -13.210938 L 13.046875 -13.210938 C 13.175781 -13.210938 13.277344 -13.175781 13.375 -13.113281 L 15.515625 -11.070312 C 15.679688 -10.902344 15.746094 -10.738281 15.746094 -10.507812 L 15.746094 -0.496094 C 15.746094 -0.230469 15.976562 0 16.242188 0 L 18.449219 0 C 18.710938 0 18.941406 -0.230469 18.941406 -0.496094 L 18.941406 -11.429688 C 18.941406 -11.761719 18.808594 -12.058594 18.578125 -12.289062 L 14.855469 -16.078125 C 14.59375 -16.339844 14.296875 -16.472656 13.867188 -16.472656 L 2.007812 -16.472656 C 1.449219 -16.472656 0.988281 -16.042969 0.988281 -15.484375 Z M 0.988281 -0.496094 "/></g></g></g><g fill="#ff1616" fill-opacity="1"><g transform="translate(135.686803, 236.512781)"><g><path d="M 0.988281 -10.277344 C 0.988281 -9.851562 1.121094 -9.554688 1.382812 -9.289062 L 3.691406 -7.050781 C 3.921875 -6.851562 4.214844 -6.6875 4.546875 -6.6875 L 14.332031 -6.6875 C 14.5625 -6.6875 14.726562 -6.621094 14.890625 -6.457031 L 15.382812 -5.863281 C 15.449219 -5.765625 15.484375 -5.667969 15.484375 -5.535156 L 15.484375 -4.742188 C 15.484375 -4.511719 15.417969 -4.347656 15.253906 -4.183594 L 14.527344 -3.523438 C 14.332031 -3.359375 14.199219 -3.261719 14.035156 -3.261719 L 2.042969 -3.261719 C 1.777344 -3.261719 1.546875 -3.03125 1.546875 -2.765625 L 1.546875 -0.496094 C 1.546875 -0.230469 1.777344 0 2.042969 0 L 14.957031 0 C 15.351562 0 15.613281 -0.0976562 15.910156 -0.394531 L 18.546875 -3.03125 C 18.746094 -3.226562 18.941406 -3.558594 18.941406 -3.886719 L 18.941406 -6.621094 C 18.941406 -7.050781 18.808594 -7.378906 18.546875 -7.609375 L 16.570312 -9.519531 C 16.339844 -9.71875 16.042969 -9.882812 15.714844 -9.882812 L 5.601562 -9.882812 C 5.371094 -9.882812 5.203125 -9.949219 5.039062 -10.113281 L 4.546875 -10.707031 C 4.480469 -10.804688 4.449219 -10.902344 4.449219 -11.035156 L 4.449219 -11.726562 C 4.449219 -11.957031 4.511719 -12.121094 4.679688 -12.289062 L 5.402344 -12.945312 C 5.601562 -13.113281 5.730469 -13.210938 5.898438 -13.210938 L 17.558594 -13.210938 C 17.820312 -13.210938 18.054688 -13.441406 18.054688 -13.703125 L 18.054688 -15.976562 C 18.054688 -16.242188 17.820312 -16.472656 17.558594 -16.472656 L 4.972656 -16.472656 C 4.578125 -16.472656 4.316406 -16.371094 4.019531 -16.078125 L 1.382812 -13.441406 C 1.1875 -13.242188 0.988281 -12.914062 0.988281 -12.585938 Z M 0.988281 -10.277344 "/></g></g></g><g fill="#ff1616" fill-opacity="1"><g transform="translate(162.20293, 236.512781)"><g><path d="M 18.578125 -13.113281 L 15.679688 -16.078125 C 15.417969 -16.339844 15.121094 -16.472656 14.691406 -16.472656 L 5.238281 -16.472656 C 4.808594 -16.472656 4.511719 -16.339844 4.25 -16.078125 L 1.351562 -13.113281 C 1.121094 -12.878906 0.988281 -12.585938 0.988281 -12.253906 L 0.988281 -0.496094 C 0.988281 -0.230469 1.21875 0 1.484375 0 L 3.691406 0 C 3.953125 0 4.183594 -0.230469 4.183594 -0.496094 L 4.183594 -5.402344 L 15.746094 -5.402344 L 15.746094 -0.496094 C 15.746094 -0.230469 15.976562 0 16.242188 0 L 18.449219 0 C 18.710938 0 18.941406 -0.230469 18.941406 -0.496094 L 18.941406 -12.253906 C 18.941406 -12.585938 18.808594 -12.878906 18.578125 -13.113281 Z M 4.183594 -8.269531 L 4.183594 -11.398438 C 4.183594 -11.628906 4.25 -11.792969 4.414062 -11.957031 L 5.46875 -12.945312 L 5.667969 -13.113281 C 5.730469 -13.175781 5.832031 -13.210938 5.996094 -13.210938 L 13.933594 -13.210938 C 14.066406 -13.210938 14.164062 -13.175781 14.265625 -13.113281 L 14.460938 -12.945312 L 15.515625 -11.957031 C 15.679688 -11.792969 15.746094 -11.628906 15.746094 -11.398438 L 15.746094 -8.269531 Z M 4.183594 -8.269531 "/></g></g></g><g fill="#ff1616" fill-opacity="1"><g transform="translate(188.719058, 236.512781)"><g><path d="M 0.988281 -10.277344 C 0.988281 -9.851562 1.121094 -9.554688 1.382812 -9.289062 L 3.691406 -7.050781 C 3.921875 -6.851562 4.214844 -6.6875 4.546875 -6.6875 L 14.332031 -6.6875 C 14.5625 -6.6875 14.726562 -6.621094 14.890625 -6.457031 L 15.382812 -5.863281 C 15.449219 -5.765625 15.484375 -5.667969 15.484375 -5.535156 L 15.484375 -4.742188 C 15.484375 -4.511719 15.417969 -4.347656 15.253906 -4.183594 L 14.527344 -3.523438 C 14.332031 -3.359375 14.199219 -3.261719 14.035156 -3.261719 L 2.042969 -3.261719 C 1.777344 -3.261719 1.546875 -3.03125 1.546875 -2.765625 L 1.546875 -0.496094 C 1.546875 -0.230469 1.777344 0 2.042969 0 L 14.957031 0 C 15.351562 0 15.613281 -0.0976562 15.910156 -0.394531 L 18.546875 -3.03125 C 18.746094 -3.226562 18.941406 -3.558594 18.941406 -3.886719 L 18.941406 -6.621094 C 18.941406 -7.050781 18.808594 -7.378906 18.546875 -7.609375 L 16.570312 -9.519531 C 16.339844 -9.71875 16.042969 -9.882812 15.714844 -9.882812 L 5.601562 -9.882812 C 5.371094 -9.882812 5.203125 -9.949219 5.039062 -10.113281 L 4.546875 -10.707031 C 4.480469 -10.804688 4.449219 -10.902344 4.449219 -11.035156 L 4.449219 -11.726562 C 4.449219 -11.957031 4.511719 -12.121094 4.679688 -12.289062 L 5.402344 -12.945312 C 5.601562 -13.113281 5.730469 -13.210938 5.898438 -13.210938 L 17.558594 -13.210938 C 17.820312 -13.210938 18.054688 -13.441406 18.054688 -13.703125 L 18.054688 -15.976562 C 18.054688 -16.242188 17.820312 -16.472656 17.558594 -16.472656 L 4.972656 -16.472656 C 4.578125 -16.472656 4.316406 -16.371094 4.019531 -16.078125 L 1.382812 -13.441406 C 1.1875 -13.242188 0.988281 -12.914062 0.988281 -12.585938 Z M 0.988281 -10.277344 "/></g></g></g><g fill="#ff1616" fill-opacity="1"><g transform="translate(215.235185, 236.512781)"><g/></g></g><g fill="#ff1616" fill-opacity="1"><g transform="translate(230.390006, 236.512781)"><g><path d="M 16.242188 -9.914062 L 18.449219 -9.914062 C 18.710938 -9.914062 18.941406 -10.144531 18.941406 -10.410156 L 18.941406 -12.417969 C 18.941406 -12.75 18.808594 -13.046875 18.578125 -13.277344 L 15.679688 -16.242188 C 15.417969 -16.503906 15.121094 -16.636719 14.691406 -16.636719 L 5.304688 -16.636719 C 4.910156 -16.636719 4.644531 -16.539062 4.347656 -16.242188 L 1.382812 -13.277344 C 1.1875 -13.078125 0.988281 -12.75 0.988281 -12.417969 L 0.988281 -4.050781 C 0.988281 -3.722656 1.1875 -3.394531 1.382812 -3.195312 L 4.347656 -0.230469 C 4.644531 0.0664062 4.910156 0.164062 5.304688 0.164062 L 14.691406 0.164062 C 15.121094 0.164062 15.417969 0.03125 15.679688 -0.230469 L 18.578125 -3.195312 C 18.808594 -3.425781 18.941406 -3.722656 18.941406 -4.050781 L 18.941406 -6.0625 C 18.941406 -6.324219 18.710938 -6.554688 18.449219 -6.554688 L 16.242188 -6.554688 C 15.976562 -6.554688 15.746094 -6.324219 15.746094 -6.0625 L 15.746094 -4.910156 C 15.746094 -4.679688 15.714844 -4.511719 15.515625 -4.347656 L 14.460938 -3.359375 C 14.296875 -3.195312 14.164062 -3.097656 13.933594 -3.097656 L 6.226562 -3.097656 C 6.0625 -3.097656 5.929688 -3.164062 5.730469 -3.359375 L 4.679688 -4.347656 C 4.511719 -4.511719 4.449219 -4.679688 4.449219 -4.910156 L 4.449219 -11.5625 C 4.449219 -11.792969 4.511719 -11.957031 4.679688 -12.121094 L 5.730469 -13.113281 C 5.929688 -13.308594 6.0625 -13.375 6.226562 -13.375 L 13.933594 -13.375 C 14.164062 -13.375 14.296875 -13.277344 14.460938 -13.113281 L 15.515625 -12.121094 C 15.714844 -11.957031 15.746094 -11.792969 15.746094 -11.5625 L 15.746094 -10.410156 C 15.746094 -10.144531 15.976562 -9.914062 16.242188 -9.914062 Z M 16.242188 -9.914062 "/></g></g></g><g fill="#ff1616" fill-opacity="1"><g transform="translate(256.906133, 236.512781)"><g><path d="M 1.484375 0 L 3.953125 0 C 4.214844 0 4.449219 -0.230469 4.449219 -0.496094 L 4.449219 -15.976562 C 4.449219 -16.242188 4.214844 -16.472656 3.953125 -16.472656 L 1.484375 -16.472656 C 1.21875 -16.472656 0.988281 -16.242188 0.988281 -15.976562 L 0.988281 -0.496094 C 0.988281 -0.230469 1.21875 0 1.484375 0 Z M 1.484375 0 "/></g></g></g><g fill="#ff1616" fill-opacity="1"><g transform="translate(268.93248, 236.512781)"><g><path d="M 21.90625 -16.472656 L 1.484375 -16.472656 C 1.21875 -16.472656 0.988281 -16.242188 0.988281 -15.976562 L 0.988281 -13.507812 C 0.988281 -13.242188 1.21875 -13.011719 1.484375 -13.011719 L 9.980469 -13.011719 L 9.980469 -0.496094 C 9.980469 -0.230469 10.210938 0 10.476562 0 L 12.945312 0 C 13.210938 0 13.441406 -0.230469 13.441406 -0.496094 L 13.441406 -13.011719 L 21.90625 -13.011719 C 22.171875 -13.011719 22.402344 -13.242188 22.402344 -13.507812 L 22.402344 -15.976562 C 22.402344 -16.242188 22.171875 -16.472656 21.90625 -16.472656 Z M 21.90625 -16.472656 "/></g></g></g><g fill="#ff1616" fill-opacity="1"><g transform="translate(298.90638, 236.512781)"><g><path d="M 18.449219 -16.472656 L 16.242188 -16.472656 C 15.976562 -16.472656 15.746094 -16.242188 15.746094 -15.976562 L 15.746094 -10.507812 C 15.746094 -10.277344 15.714844 -10.144531 15.515625 -9.949219 L 13.277344 -7.476562 L 13.078125 -7.3125 C 12.980469 -7.246094 12.878906 -7.214844 12.75 -7.214844 L 7.214844 -7.214844 C 7.050781 -7.214844 6.949219 -7.246094 6.886719 -7.3125 L 6.6875 -7.476562 L 4.414062 -9.949219 C 4.25 -10.144531 4.183594 -10.277344 4.183594 -10.507812 L 4.183594 -15.976562 C 4.183594 -16.242188 3.953125 -16.472656 3.691406 -16.472656 L 1.484375 -16.472656 C 1.21875 -16.472656 0.988281 -16.242188 0.988281 -15.976562 L 0.988281 -9.652344 C 0.988281 -9.324219 1.121094 -9.058594 1.351562 -8.796875 L 5.402344 -4.347656 C 5.667969 -4.085938 5.960938 -3.953125 6.390625 -3.953125 L 8.269531 -3.953125 L 8.269531 -0.496094 C 8.269531 -0.230469 8.5 0 8.761719 0 L 11.234375 0 C 11.496094 0 11.726562 -0.230469 11.726562 -0.496094 L 11.726562 -3.953125 L 13.539062 -3.953125 C 13.96875 -3.953125 14.296875 -4.085938 14.527344 -4.347656 L 18.578125 -8.796875 C 18.84375 -9.058594 18.941406 -9.324219 18.941406 -9.652344 L 18.941406 -15.976562 C 18.941406 -16.242188 18.710938 -16.472656 18.449219 -16.472656 Z M 18.449219 -16.472656 "/></g></g></g></svg>