<svg xmlns="http://www.w3.org/2000/svg" xmlns:xlink="http://www.w3.org/1999/xlink" width="1000" zoomAndPan="magnify" viewBox="0 0 750 749.999995" height="1000" preserveAspectRatio="xMidYMid meet" version="1.0"><defs><g/><clipPath id="11ca631845"><path d="M 0 219.257812 L 750 219.257812 L 750 328 L 0 328 Z M 0 219.257812 " clip-rule="nonzero"/></clipPath></defs><g clip-path="url(#11ca631845)"><path fill="#f7f8fd" d="M 691.46875 297.605469 C 681.917969 295.808594 672.464844 293.4375 663.160156 290.539062 C 653.863281 287.609375 644.675781 284.261719 635.589844 280.566406 C 626.503906 276.859375 617.472656 272.894531 608.433594 268.777344 L 581.082031 256.242188 C 571.847656 252.046875 562.453125 247.914062 552.773438 244 C 550.339844 243.03125 547.929688 242.042969 545.453125 241.117188 L 541.761719 239.707031 L 538.023438 238.347656 C 535.546875 237.421875 532.988281 236.582031 530.472656 235.695312 C 529.207031 235.265625 527.917969 234.855469 526.640625 234.4375 C 525.359375 234.027344 524.09375 233.589844 522.789062 233.207031 C 520.191406 232.417969 517.613281 231.617188 514.964844 230.898438 C 513.648438 230.535156 512.34375 230.152344 511.015625 229.808594 L 507.019531 228.808594 C 504.355469 228.144531 501.707031 227.445312 498.996094 226.898438 L 494.953125 226.027344 C 493.605469 225.746094 492.265625 225.433594 490.898438 225.207031 L 482.734375 223.738281 L 474.507812 222.515625 C 473.820312 222.414062 473.140625 222.300781 472.453125 222.21875 L 470.382812 221.976562 L 466.25 221.488281 C 464.871094 221.339844 463.5 221.140625 462.113281 221.03125 L 457.964844 220.664062 C 446.910156 219.691406 435.804688 219.25 424.75 219.355469 C 413.695312 219.464844 402.691406 220.011719 391.792969 221 C 369.984375 222.960938 348.652344 226.65625 327.914062 231.4375 C 307.199219 236.285156 287.058594 242.242188 267.558594 249.089844 C 257.8125 252.515625 248.1875 256.113281 238.757812 259.964844 C 229.308594 263.789062 220.011719 267.800781 210.875 271.996094 C 230.4375 265.445312 250.144531 259.25 270.210938 253.941406 C 290.238281 248.554688 310.59375 244.011719 331.148438 240.472656 C 341.425781 238.703125 351.78125 237.28125 362.144531 236.109375 C 367.324219 235.5 372.523438 235.050781 377.714844 234.601562 L 385.511719 234.066406 C 388.109375 233.898438 390.710938 233.8125 393.308594 233.679688 C 403.707031 233.25 414.089844 233.148438 424.410156 233.503906 L 432.140625 233.863281 C 434.710938 234.019531 437.269531 234.230469 439.832031 234.410156 L 441.75 234.546875 L 443.660156 234.734375 L 447.480469 235.105469 C 448.753906 235.238281 450.03125 235.335938 451.296875 235.488281 L 455.09375 235.96875 L 458.882812 236.441406 C 460.148438 236.589844 461.390625 236.820312 462.648438 237.003906 L 466.402344 237.589844 L 468.28125 237.882812 C 468.90625 237.980469 469.519531 238.109375 470.140625 238.21875 L 477.566406 239.613281 L 484.898438 241.222656 C 486.128906 241.472656 487.324219 241.804688 488.53125 242.105469 L 492.148438 243.011719 C 494.578125 243.578125 496.933594 244.292969 499.308594 244.96875 L 502.863281 245.984375 C 504.046875 246.335938 505.207031 246.722656 506.378906 247.085938 C 508.726562 247.808594 511.035156 248.621094 513.359375 249.40625 C 531.898438 255.824219 549.617188 264.035156 567.390625 272.65625 C 585.175781 281.28125 603.066406 290.375 622.269531 298.570312 C 625.9375 300.136719 629.664062 301.664062 633.4375 303.148438 C 622.066406 304.023438 610.65625 304.683594 599.21875 305.167969 L 588.359375 305.566406 L 577.484375 305.828125 C 573.863281 305.9375 570.226562 305.9375 566.597656 305.988281 L 561.152344 306.046875 C 559.335938 306.066406 557.515625 306.046875 555.699219 306.046875 C 541.164062 306.109375 526.597656 305.804688 512.019531 305.371094 C 497.445312 304.941406 482.851562 304.265625 468.25 303.457031 C 453.648438 302.644531 439.035156 301.707031 424.414062 300.628906 C 395.167969 298.53125 365.882812 295.992188 336.515625 293.519531 C 307.148438 291.035156 277.691406 288.558594 248.117188 286.558594 L 237.023438 285.824219 C 233.328125 285.574219 229.625 285.339844 225.917969 285.121094 C 218.5 284.6875 211.066406 284.304688 203.621094 283.964844 C 199.898438 283.789062 196.164062 283.664062 192.441406 283.507812 L 181.238281 283.160156 C 177.492188 283.089844 173.757812 283.003906 170.011719 282.96875 L 164.394531 282.929688 C 162.523438 282.910156 160.652344 282.90625 158.773438 282.921875 C 155.023438 282.945312 151.28125 282.9375 147.527344 283.03125 L 141.902344 283.136719 C 140.027344 283.179688 138.152344 283.253906 136.277344 283.320312 L 130.65625 283.535156 L 125.035156 283.832031 C 121.289062 284.003906 117.546875 284.296875 113.808594 284.554688 C 98.855469 285.636719 83.980469 287.453125 69.355469 290.019531 C 54.734375 292.636719 40.410156 296.085938 26.648438 300.472656 C 12.898438 304.863281 -0.308594 310.152344 -12.503906 316.472656 C 13.855469 306.304688 42.28125 299.949219 71.089844 296.792969 C 99.953125 293.578125 129.203125 293.519531 158.304688 294.839844 C 160.125 294.914062 161.945312 295.007812 163.769531 295.117188 L 169.226562 295.429688 C 172.867188 295.640625 176.507812 295.917969 180.144531 296.148438 L 191.0625 296.960938 C 194.703125 297.269531 198.339844 297.554688 201.980469 297.882812 C 209.261719 298.53125 216.539062 299.222656 223.828125 299.964844 C 231.113281 300.671875 238.414062 301.441406 245.703125 302.199219 C 274.871094 305.3125 304.042969 308.667969 333.308594 311.933594 C 391.824219 318.445312 450.835938 324.558594 510.695312 326.878906 C 540.601562 328.054688 570.707031 328.210938 600.820312 326.96875 C 615.871094 326.304688 630.929688 325.378906 645.9375 323.960938 C 660.945312 322.535156 675.898438 320.710938 690.761719 318.476562 L 752.792969 309.148438 Z M 691.46875 297.605469 " fill-opacity="1" fill-rule="nonzero"/></g><path fill="#ff1616" d="M 526.863281 361.183594 C 549.980469 366.246094 573.421875 369.980469 596.992188 372.144531 C 626.546875 374.859375 656.65625 375.242188 686.03125 370.492188 C 700.316406 368.179688 714.46875 364.605469 727.855469 359.050781 C 738.835938 354.5 759.621094 347.097656 761.601562 333.421875 C 762.304688 328.578125 762.488281 321.246094 756.40625 317.460938 C 748.5625 312.589844 738.046875 317.503906 730.707031 320.296875 C 721.941406 323.636719 713.300781 327.1875 703.835938 329.78125 C 692.015625 333.019531 679.785156 335.71875 667.429688 338.113281 C 653.507812 340.8125 639.335938 343.238281 625.015625 345.050781 C 632.082031 346.226562 643.820312 347.816406 650.171875 348.605469 C 657.765625 349.550781 665.398438 350.382812 673.074219 351.050781 C 681.140625 351.75 689.484375 352.273438 697.828125 352.550781 C 660.6875 360.015625 597.421875 366.566406 505.429688 355.984375 C 512.65625 357.839844 519.882812 359.65625 526.863281 361.183594 Z M 526.863281 361.183594 " fill-opacity="1" fill-rule="nonzero"/><g fill="#f7f8fd" fill-opacity="1"><g transform="translate(37.688163, 429.801183)"><g><path d="M 51.042969 -42.679688 C 50.375 -45.488281 49.234375 -47.832031 47.832031 -49.703125 C 46.359375 -51.511719 44.417969 -52.914062 42.144531 -53.785156 C 39.871094 -54.65625 37.195312 -55.121094 34.050781 -55.121094 L 10.703125 -55.121094 L 10.703125 -55.054688 C 8.761719 -54.921875 7.089844 -53.851562 6.085938 -52.246094 C 5.820312 -51.710938 5.550781 -51.109375 5.417969 -50.574219 L 5.351562 -4.882812 C 5.484375 -4.148438 5.753906 -3.410156 6.085938 -2.808594 C 7.15625 -1.003906 9.097656 0.0664062 11.171875 0.0664062 L 34.050781 0.0664062 C 37.195312 0.0664062 39.9375 -0.402344 42.144531 -1.269531 C 44.417969 -2.140625 46.359375 -3.546875 47.832031 -5.417969 C 49.234375 -7.226562 50.375 -9.566406 51.042969 -12.375 C 51.710938 -15.183594 52.046875 -18.53125 52.046875 -22.277344 L 52.046875 -32.78125 C 52.046875 -36.527344 51.710938 -39.871094 51.042969 -42.679688 Z M 15.183594 -10.234375 L 15.183594 -44.820312 C 15.183594 -45.089844 15.253906 -45.222656 15.320312 -45.222656 L 33.851562 -45.222656 C 35.386719 -45.222656 36.726562 -45.019531 37.796875 -44.621094 C 38.867188 -44.21875 39.667969 -43.683594 40.273438 -42.8125 C 40.941406 -41.945312 41.410156 -40.808594 41.675781 -39.402344 C 41.945312 -37.863281 42.144531 -35.992188 42.144531 -33.78125 L 42.144531 -21.273438 C 42.144531 -19.066406 41.945312 -17.191406 41.675781 -15.722656 C 41.410156 -14.25 40.941406 -13.113281 40.273438 -12.242188 C 39.667969 -11.4375 38.867188 -10.835938 37.796875 -10.4375 C 36.726562 -10.035156 35.386719 -9.902344 33.851562 -9.902344 L 15.253906 -9.902344 C 15.253906 -9.902344 15.183594 -9.96875 15.183594 -10.234375 Z M 15.183594 -10.234375 "/></g></g></g><g fill="#f7f8fd" fill-opacity="1"><g transform="translate(95.061264, 429.801183)"><g><path d="M 50.976562 -39.132812 C 50.976562 -39.066406 50.976562 -39 50.976562 -38.933594 C 50.976562 -38.867188 50.976562 -38.800781 50.976562 -38.734375 Z M 52.246094 -2.875 L 40.539062 -22.945312 C 43.816406 -23.347656 46.359375 -24.75 48.03125 -27.027344 C 49.90625 -29.769531 50.910156 -33.714844 50.976562 -38.933594 C 50.910156 -44.152344 49.90625 -48.097656 48.03125 -50.839844 C 46.023438 -53.71875 42.679688 -55.121094 38.132812 -55.121094 L 7.292969 -55.121094 C 6.691406 -55.121094 5.351562 -54.921875 5.351562 -52.78125 L 5.351562 -47.496094 C 5.351562 -45.421875 6.691406 -45.222656 7.292969 -45.222656 L 36.390625 -45.222656 C 38.132812 -45.222656 39.269531 -44.753906 39.9375 -43.75 C 40.671875 -42.746094 41.007812 -41.140625 41.007812 -38.933594 C 41.007812 -36.726562 40.671875 -35.121094 39.9375 -34.117188 C 39.269531 -33.113281 38.132812 -32.644531 36.390625 -32.644531 L 7.292969 -32.644531 C 6.691406 -32.644531 5.351562 -32.445312 5.351562 -30.371094 L 5.351562 -2.273438 C 5.351562 -0.199219 6.691406 0.0664062 7.292969 0.0664062 L 13.378906 0.0664062 C 13.980469 0.0664062 15.253906 -0.199219 15.253906 -2.273438 L 15.253906 -22.746094 L 29.367188 -22.746094 L 41.476562 -1.269531 C 41.742188 -0.871094 41.945312 -0.535156 42.210938 -0.335938 C 42.546875 -0.0664062 43.015625 0.0664062 43.617188 0.0664062 L 50.976562 0.0664062 C 51.777344 0.0664062 52.378906 -0.46875 52.515625 -1.269531 C 52.582031 -1.941406 52.515625 -2.476562 52.246094 -2.875 Z M 52.246094 -2.875 "/></g></g></g><g fill="#f7f8fd" fill-opacity="1"><g transform="translate(152.969313, 429.801183)"><g><path d="M 13.378906 -55.121094 L 7.226562 -55.121094 C 6.691406 -55.121094 5.351562 -54.855469 5.351562 -52.78125 L 5.351562 -2.273438 C 5.351562 -0.199219 6.691406 0.0664062 7.226562 0.0664062 L 13.378906 0.0664062 C 13.914062 0.0664062 15.253906 -0.199219 15.253906 -2.273438 L 15.253906 -52.78125 C 15.253906 -54.855469 13.914062 -55.121094 13.378906 -55.121094 Z M 13.378906 -55.121094 "/></g></g></g><g fill="#f7f8fd" fill-opacity="1"><g transform="translate(173.56352, 429.801183)"><g><path d="M 38.132812 -55.121094 L 7.226562 -55.121094 C 6.691406 -55.121094 5.351562 -54.921875 5.351562 -52.78125 L 5.351562 -47.496094 C 5.351562 -45.421875 6.691406 -45.222656 7.226562 -45.222656 L 36.390625 -45.222656 C 38.0625 -45.222656 39.269531 -44.753906 39.9375 -43.75 C 40.671875 -42.746094 41.007812 -41.140625 41.007812 -38.933594 C 41.007812 -36.726562 40.671875 -35.121094 39.9375 -34.117188 C 39.269531 -33.113281 38.0625 -32.644531 36.390625 -32.644531 L 7.226562 -32.644531 C 6.691406 -32.644531 5.351562 -32.445312 5.351562 -30.371094 L 5.351562 -2.273438 C 5.351562 -0.199219 6.691406 0.0664062 7.226562 0.0664062 L 13.378906 0.0664062 C 13.914062 0.0664062 15.253906 -0.199219 15.253906 -2.273438 L 15.253906 -22.746094 L 38.132812 -22.8125 C 42.679688 -22.8125 45.957031 -24.214844 47.964844 -27.027344 C 49.972656 -29.835938 50.910156 -33.851562 50.910156 -39.132812 L 50.910156 -38.734375 C 50.910156 -44.085938 49.972656 -48.097656 47.964844 -50.839844 C 45.957031 -53.71875 42.679688 -55.121094 38.132812 -55.121094 Z M 38.132812 -55.121094 "/></g></g></g><g fill="#f7f8fd" fill-opacity="1"><g transform="translate(229.799817, 429.801183)"><g/></g></g><g fill="#f7f8fd" fill-opacity="1"><g transform="translate(264.169382, 429.801183)"><g><path d="M 51.042969 -42.679688 C 50.375 -45.488281 49.234375 -47.832031 47.832031 -49.703125 C 46.359375 -51.511719 44.417969 -52.914062 42.144531 -53.785156 C 39.871094 -54.65625 37.195312 -55.121094 34.050781 -55.121094 L 10.703125 -55.121094 L 10.703125 -55.054688 C 8.761719 -54.921875 7.089844 -53.851562 6.085938 -52.246094 C 5.820312 -51.710938 5.550781 -51.109375 5.417969 -50.574219 L 5.351562 -4.882812 C 5.484375 -4.148438 5.753906 -3.410156 6.085938 -2.808594 C 7.15625 -1.003906 9.097656 0.0664062 11.171875 0.0664062 L 34.050781 0.0664062 C 37.195312 0.0664062 39.9375 -0.402344 42.144531 -1.269531 C 44.417969 -2.140625 46.359375 -3.546875 47.832031 -5.417969 C 49.234375 -7.226562 50.375 -9.566406 51.042969 -12.375 C 51.710938 -15.183594 52.046875 -18.53125 52.046875 -22.277344 L 52.046875 -32.78125 C 52.046875 -36.527344 51.710938 -39.871094 51.042969 -42.679688 Z M 15.183594 -10.234375 L 15.183594 -44.820312 C 15.183594 -45.089844 15.253906 -45.222656 15.320312 -45.222656 L 33.851562 -45.222656 C 35.386719 -45.222656 36.726562 -45.019531 37.796875 -44.621094 C 38.867188 -44.21875 39.667969 -43.683594 40.273438 -42.8125 C 40.941406 -41.945312 41.410156 -40.808594 41.675781 -39.402344 C 41.945312 -37.863281 42.144531 -35.992188 42.144531 -33.78125 L 42.144531 -21.273438 C 42.144531 -19.066406 41.945312 -17.191406 41.675781 -15.722656 C 41.410156 -14.25 40.941406 -13.113281 40.273438 -12.242188 C 39.667969 -11.4375 38.867188 -10.835938 37.796875 -10.4375 C 36.726562 -10.035156 35.386719 -9.902344 33.851562 -9.902344 L 15.253906 -9.902344 C 15.253906 -9.902344 15.183594 -9.96875 15.183594 -10.234375 Z M 15.183594 -10.234375 "/></g></g></g><g fill="#f7f8fd" fill-opacity="1"><g transform="translate(321.542495, 429.801183)"><g><path d="M 45.554688 -11.972656 L 22.007812 -11.972656 C 20.605469 -11.972656 19.46875 -12.175781 18.53125 -12.441406 C 17.660156 -12.777344 17.058594 -13.246094 16.523438 -13.914062 C 15.988281 -14.648438 15.585938 -15.652344 15.386719 -16.925781 C 15.320312 -17.257812 15.320312 -17.726562 15.253906 -18.0625 C 15.253906 -18.0625 15.320312 -22.878906 15.386719 -22.878906 L 45.289062 -22.878906 C 45.824219 -22.878906 47.164062 -23.144531 47.164062 -25.21875 L 47.164062 -30.503906 C 47.164062 -32.578125 45.824219 -32.78125 45.289062 -32.78125 L 10.769531 -32.710938 C 8.832031 -32.578125 7.15625 -31.574219 6.222656 -29.902344 C 5.886719 -29.367188 5.621094 -28.832031 5.484375 -28.230469 L 5.351562 -19.800781 L 5.351562 -19.46875 C 5.417969 -16.324219 5.753906 -13.648438 6.222656 -11.4375 C 6.824219 -8.761719 7.828125 -6.554688 9.097656 -4.882812 C 10.4375 -3.144531 12.175781 -1.941406 14.316406 -1.203125 C 16.390625 -0.402344 18.863281 -0.0664062 21.808594 -0.0664062 L 45.554688 -0.0664062 C 46.160156 -0.0664062 47.496094 -0.269531 47.496094 -2.339844 L 47.496094 -9.699219 C 47.496094 -11.773438 46.160156 -11.972656 45.554688 -11.972656 Z M 45.625 -55.257812 L 7.15625 -55.257812 C 6.621094 -55.257812 5.351562 -54.988281 5.351562 -52.847656 L 5.351562 -47.628906 C 5.351562 -45.554688 6.621094 -45.355469 7.15625 -45.355469 L 45.625 -45.289062 C 46.160156 -45.289062 47.496094 -45.554688 47.496094 -47.628906 L 47.496094 -52.914062 C 47.496094 -54.988281 46.160156 -55.257812 45.625 -55.257812 Z M 45.625 -55.257812 "/></g></g></g><g fill="#f7f8fd" fill-opacity="1"><g transform="translate(374.368409, 429.801183)"><g><path d="M 51.578125 -55.121094 L 7.292969 -55.121094 C 6.691406 -55.121094 5.351562 -54.921875 5.351562 -52.847656 L 5.351562 -47.628906 C 5.351562 -45.421875 6.691406 -45.222656 7.292969 -45.222656 L 24.484375 -45.222656 L 24.484375 -2.273438 C 24.484375 -0.199219 25.820312 0 26.355469 0 L 32.511719 0 C 33.113281 0 34.386719 -0.199219 34.386719 -2.273438 L 34.386719 -45.222656 L 51.578125 -45.222656 C 52.179688 -45.222656 53.515625 -45.421875 53.515625 -47.628906 L 53.515625 -52.847656 C 53.515625 -54.921875 52.179688 -55.121094 51.578125 -55.121094 Z M 51.578125 -55.121094 "/></g></g></g><g fill="#f7f8fd" fill-opacity="1"><g transform="translate(433.212665, 429.801183)"><g><path d="M 41.207031 -48.902344 C 41.074219 -49.234375 40.941406 -49.636719 40.808594 -49.90625 C 39.738281 -53.382812 36.527344 -55.859375 32.847656 -55.859375 C 31.175781 -55.859375 29.566406 -55.390625 28.230469 -54.453125 C 27.828125 -54.253906 27.496094 -53.984375 27.226562 -53.785156 C 26.222656 -52.914062 25.21875 -51.308594 24.285156 -48.902344 L 5.621094 -2.542969 C 5.417969 -1.941406 5.351562 -1.339844 5.484375 -0.9375 C 5.550781 -0.535156 5.886719 0.0664062 6.957031 0.0664062 L 14.316406 0.0664062 C 15.183594 0.0664062 15.855469 -0.46875 16.1875 -1.339844 L 20.003906 -10.902344 L 34.652344 -10.902344 C 35.386719 -10.902344 36.058594 -11.238281 36.390625 -11.839844 C 36.792969 -12.375 36.859375 -13.113281 36.660156 -13.78125 L 34.25 -19.734375 C 33.917969 -20.539062 33.179688 -21.074219 32.3125 -21.074219 L 24.015625 -21.074219 L 32.578125 -42.746094 C 32.644531 -42.878906 32.710938 -42.949219 32.710938 -42.949219 L 32.980469 -42.949219 C 32.980469 -42.949219 32.980469 -42.949219 33.046875 -42.8125 L 49.636719 -1.40625 C 49.972656 -0.46875 50.640625 0.0664062 51.578125 0.0664062 L 58.734375 0.0664062 C 59.804688 0.0664062 60.074219 -0.601562 60.207031 -0.9375 C 60.339844 -1.339844 60.273438 -1.941406 60.007812 -2.542969 Z M 41.207031 -48.902344 "/></g></g></g><g fill="#f7f8fd" fill-opacity="1"><g transform="translate(498.877751, 429.801183)"><g><path d="M 13.378906 -55.121094 L 7.226562 -55.121094 C 6.691406 -55.121094 5.351562 -54.855469 5.351562 -52.78125 L 5.351562 -2.273438 C 5.351562 -0.199219 6.691406 0.0664062 7.226562 0.0664062 L 13.378906 0.0664062 C 13.914062 0.0664062 15.253906 -0.199219 15.253906 -2.273438 L 15.253906 -52.78125 C 15.253906 -54.855469 13.914062 -55.121094 13.378906 -55.121094 Z M 13.378906 -55.121094 "/></g></g></g><g fill="#f7f8fd" fill-opacity="1"><g transform="translate(519.471965, 429.801183)"><g><path d="M 43.949219 -9.902344 L 22.210938 -9.902344 C 20.804688 -9.902344 19.667969 -10.035156 18.730469 -10.367188 C 17.929688 -10.636719 17.257812 -11.105469 16.792969 -11.839844 C 16.257812 -12.578125 15.855469 -13.578125 15.652344 -14.785156 C 15.386719 -16.121094 15.320312 -17.792969 15.320312 -19.800781 L 15.320312 -52.78125 C 15.320312 -54.921875 13.980469 -55.121094 13.445312 -55.121094 L 7.292969 -55.121094 C 6.691406 -55.121094 5.351562 -54.921875 5.351562 -52.78125 L 5.351562 -20.9375 C 5.351562 -17.191406 5.6875 -13.980469 6.289062 -11.371094 C 6.890625 -8.695312 7.828125 -6.488281 9.164062 -4.816406 C 10.503906 -3.078125 12.242188 -1.804688 14.382812 -1.070312 C 16.390625 -0.335938 18.933594 0.0664062 21.875 0.0664062 L 43.949219 0.0664062 C 44.554688 0.0664062 45.824219 -0.199219 45.824219 -2.273438 L 45.824219 -7.558594 C 45.824219 -9.632812 44.554688 -9.902344 43.949219 -9.902344 Z M 43.949219 -9.902344 "/></g></g></g><g fill="#f7f8fd" fill-opacity="1"><g transform="translate(570.626098, 429.801183)"><g><path d="M 13.378906 -55.121094 L 7.226562 -55.121094 C 6.691406 -55.121094 5.351562 -54.855469 5.351562 -52.78125 L 5.351562 -2.273438 C 5.351562 -0.199219 6.691406 0.0664062 7.226562 0.0664062 L 13.378906 0.0664062 C 13.914062 0.0664062 15.253906 -0.199219 15.253906 -2.273438 L 15.253906 -52.78125 C 15.253906 -54.855469 13.914062 -55.121094 13.378906 -55.121094 Z M 13.378906 -55.121094 "/></g></g></g><g fill="#f7f8fd" fill-opacity="1"><g transform="translate(591.220281, 429.801183)"><g><path d="M 52.714844 -55.121094 L 46.761719 -55.121094 C 46.160156 -55.121094 44.886719 -54.921875 44.886719 -52.78125 L 44.886719 -12.578125 C 44.886719 -12.507812 44.886719 -12.507812 44.886719 -12.441406 L 44.554688 -12.441406 C 44.484375 -12.441406 44.417969 -12.441406 44.351562 -12.644531 L 23.214844 -50.238281 C 22.679688 -51.242188 22.210938 -52.046875 21.742188 -52.648438 C 21.273438 -53.316406 20.804688 -53.851562 20.335938 -54.1875 C 19.800781 -54.585938 19.199219 -54.855469 18.464844 -54.988281 C 17.792969 -55.054688 16.992188 -55.121094 16.121094 -55.121094 L 11.105469 -55.121094 C 9.164062 -55.121094 7.691406 -54.453125 6.757812 -53.25 C 5.820312 -51.980469 5.351562 -49.769531 5.351562 -46.492188 L 5.351562 -2.273438 C 5.351562 -0.199219 6.691406 0.0664062 7.292969 0.0664062 L 13.246094 0.0664062 C 13.847656 0.0664062 15.117188 -0.199219 15.117188 -2.273438 L 15.117188 -42.480469 C 15.117188 -42.546875 15.117188 -42.613281 15.117188 -42.613281 L 15.453125 -42.613281 C 15.453125 -42.613281 15.519531 -42.613281 15.652344 -42.414062 L 36.859375 -4.816406 C 37.394531 -3.746094 37.929688 -2.945312 38.398438 -2.339844 C 38.867188 -1.671875 39.335938 -1.203125 39.871094 -0.871094 C 40.40625 -0.46875 41.007812 -0.269531 41.675781 -0.132812 C 42.277344 0 43.015625 0.0664062 43.949219 0.0664062 L 48.835938 0.0664062 C 50.773438 0.0664062 52.246094 -0.601562 53.183594 -1.875 C 54.121094 -3.078125 54.585938 -5.285156 54.585938 -8.5625 L 54.585938 -52.78125 C 54.585938 -54.921875 53.25 -55.121094 52.714844 -55.121094 Z M 52.714844 -55.121094 "/></g></g></g><g fill="#f7f8fd" fill-opacity="1"><g transform="translate(651.134436, 429.801183)"><g><path d="M 50.640625 -55.121094 L 21.875 -55.121094 C 18.933594 -55.121094 16.390625 -54.722656 14.316406 -53.984375 C 12.242188 -53.183594 10.4375 -51.910156 9.164062 -50.238281 C 7.828125 -48.5 6.824219 -46.359375 6.222656 -43.683594 C 5.621094 -41.074219 5.351562 -37.863281 5.351562 -34.183594 L 5.351562 -20.9375 C 5.351562 -17.191406 5.621094 -13.980469 6.222656 -11.304688 C 6.824219 -8.695312 7.828125 -6.488281 9.164062 -4.75 C 10.503906 -3.078125 12.242188 -1.804688 14.316406 -1.070312 C 16.390625 -0.335938 18.933594 0.0664062 21.875 0.0664062 L 44.753906 0.0664062 C 47.230469 0.0664062 49.167969 -0.9375 50.507812 -2.875 C 51.777344 -4.75 52.445312 -7.894531 52.445312 -12.375 L 52.445312 -30.304688 C 52.445312 -32.847656 50.976562 -33.246094 50.105469 -33.246094 L 26.425781 -33.246094 C 25.890625 -33.246094 24.550781 -32.980469 24.550781 -30.839844 L 24.550781 -25.753906 C 24.550781 -23.546875 25.890625 -23.347656 26.425781 -23.347656 L 43.082031 -23.347656 C 43.082031 -23.347656 43.148438 -13.980469 43.148438 -13.980469 C 43.148438 -11.90625 42.8125 -11.039062 42.546875 -10.636719 C 42.210938 -10.101562 41.675781 -9.902344 40.941406 -9.902344 L 22.210938 -9.902344 C 20.804688 -9.902344 19.601562 -10.035156 18.730469 -10.367188 C 17.863281 -10.636719 17.257812 -11.105469 16.722656 -11.839844 C 16.257812 -12.507812 15.855469 -13.511719 15.652344 -14.785156 C 15.386719 -16.121094 15.253906 -17.792969 15.253906 -19.800781 L 15.253906 -35.320312 C 15.253906 -37.328125 15.386719 -39 15.652344 -40.339844 C 15.855469 -41.542969 16.257812 -42.546875 16.722656 -43.28125 C 17.257812 -43.949219 17.863281 -44.417969 18.730469 -44.753906 C 19.601562 -45.019531 20.804688 -45.222656 22.210938 -45.222656 L 50.640625 -45.222656 C 51.175781 -45.222656 52.515625 -45.421875 52.515625 -47.5625 L 52.515625 -52.78125 C 52.515625 -54.855469 51.175781 -55.121094 50.640625 -55.121094 Z M 50.640625 -55.121094 "/></g></g></g><g fill="#ff1616" fill-opacity="1"><g transform="translate(112.276873, 473.025586)"><g><path d="M 37.882812 -26.882812 L 37.882812 -31.953125 C 37.882812 -32.480469 37.421875 -32.941406 36.894531 -32.941406 L 31.953125 -32.941406 C 31.425781 -32.941406 30.964844 -32.480469 30.964844 -31.953125 L 30.964844 -28 L 26.222656 -19.765625 L 8.894531 -19.765625 L 8.894531 -31.953125 C 8.894531 -32.480469 8.433594 -32.941406 7.90625 -32.941406 L 2.964844 -32.941406 C 2.4375 -32.941406 1.976562 -32.480469 1.976562 -31.953125 L 1.976562 -0.988281 C 1.976562 -0.460938 2.4375 0 2.964844 0 L 7.90625 0 C 8.433594 0 8.894531 -0.460938 8.894531 -0.988281 L 8.894531 -12.714844 L 26.683594 -12.714844 C 27.144531 -12.714844 27.472656 -12.585938 27.804688 -12.253906 L 30.4375 -9.488281 L 30.769531 -9.09375 C 30.902344 -8.894531 30.964844 -8.695312 30.964844 -8.433594 L 30.964844 -0.988281 C 30.964844 -0.460938 31.425781 0 31.953125 0 L 36.894531 0 C 37.421875 0 37.882812 -0.460938 37.882812 -0.988281 L 37.882812 -11.265625 C 37.882812 -12.121094 37.621094 -12.714844 37.09375 -13.242188 L 32.878906 -17.394531 L 37.488281 -25.433594 C 37.753906 -25.828125 37.882812 -26.421875 37.882812 -26.882812 Z M 37.882812 -26.882812 "/></g></g></g><g fill="#ff1616" fill-opacity="1"><g transform="translate(165.309121, 473.025586)"><g><path d="M 37.160156 -26.222656 L 31.363281 -32.152344 C 30.835938 -32.679688 30.242188 -32.941406 29.386719 -32.941406 L 10.476562 -32.941406 C 9.621094 -32.941406 9.027344 -32.679688 8.5 -32.152344 L 2.703125 -26.222656 C 2.238281 -25.761719 1.976562 -25.167969 1.976562 -24.507812 L 1.976562 -0.988281 C 1.976562 -0.460938 2.4375 0 2.964844 0 L 7.378906 0 C 7.90625 0 8.367188 -0.460938 8.367188 -0.988281 L 8.367188 -10.804688 L 31.492188 -10.804688 L 31.492188 -0.988281 C 31.492188 -0.460938 31.953125 0 32.480469 0 L 36.894531 0 C 37.421875 0 37.882812 -0.460938 37.882812 -0.988281 L 37.882812 -24.507812 C 37.882812 -25.167969 37.621094 -25.761719 37.160156 -26.222656 Z M 8.367188 -16.539062 L 8.367188 -22.796875 C 8.367188 -23.257812 8.5 -23.585938 8.828125 -23.917969 L 10.9375 -25.894531 L 11.332031 -26.222656 C 11.464844 -26.355469 11.660156 -26.421875 11.992188 -26.421875 L 27.871094 -26.421875 C 28.132812 -26.421875 28.332031 -26.355469 28.527344 -26.222656 L 28.925781 -25.894531 L 31.03125 -23.917969 C 31.363281 -23.585938 31.492188 -23.257812 31.492188 -22.796875 L 31.492188 -16.539062 Z M 8.367188 -16.539062 "/></g></g></g><g fill="#ff1616" fill-opacity="1"><g transform="translate(218.341369, 473.025586)"><g><path d="M 1.976562 -0.988281 C 1.976562 -0.460938 2.4375 0 2.964844 0 L 7.378906 0 C 7.90625 0 8.367188 -0.460938 8.367188 -0.988281 L 8.367188 -26.421875 L 26.089844 -26.421875 C 26.355469 -26.421875 26.550781 -26.355469 26.75 -26.222656 L 31.03125 -22.136719 C 31.363281 -21.808594 31.492188 -21.480469 31.492188 -21.019531 L 31.492188 -0.988281 C 31.492188 -0.460938 31.953125 0 32.480469 0 L 36.894531 0 C 37.421875 0 37.882812 -0.460938 37.882812 -0.988281 L 37.882812 -22.863281 C 37.882812 -23.519531 37.621094 -24.113281 37.160156 -24.574219 L 29.714844 -32.152344 C 29.1875 -32.679688 28.59375 -32.941406 27.738281 -32.941406 L 4.019531 -32.941406 C 2.898438 -32.941406 1.976562 -32.085938 1.976562 -30.964844 Z M 1.976562 -0.988281 "/></g></g></g><g fill="#ff1616" fill-opacity="1"><g transform="translate(271.373609, 473.025586)"><g><path d="M 1.976562 -20.554688 C 1.976562 -19.699219 2.238281 -19.105469 2.765625 -18.578125 L 7.378906 -14.101562 C 7.839844 -13.703125 8.433594 -13.375 9.09375 -13.375 L 28.660156 -13.375 C 29.121094 -13.375 29.449219 -13.242188 29.78125 -12.914062 L 30.769531 -11.726562 C 30.902344 -11.53125 30.964844 -11.332031 30.964844 -11.070312 L 30.964844 -9.488281 C 30.964844 -9.027344 30.835938 -8.695312 30.503906 -8.367188 L 29.054688 -7.050781 C 28.660156 -6.71875 28.398438 -6.523438 28.066406 -6.523438 L 4.085938 -6.523438 C 3.558594 -6.523438 3.097656 -6.0625 3.097656 -5.535156 L 3.097656 -0.988281 C 3.097656 -0.460938 3.558594 0 4.085938 0 L 29.914062 0 C 30.703125 0 31.230469 -0.199219 31.824219 -0.789062 L 37.09375 -6.0625 C 37.488281 -6.457031 37.882812 -7.117188 37.882812 -7.773438 L 37.882812 -13.242188 C 37.882812 -14.101562 37.621094 -14.757812 37.09375 -15.21875 L 33.140625 -19.042969 C 32.679688 -19.4375 32.085938 -19.765625 31.425781 -19.765625 L 11.199219 -19.765625 C 10.738281 -19.765625 10.410156 -19.898438 10.082031 -20.226562 L 9.09375 -21.414062 C 8.960938 -21.609375 8.894531 -21.808594 8.894531 -22.070312 L 8.894531 -23.457031 C 8.894531 -23.917969 9.027344 -24.246094 9.355469 -24.574219 L 10.804688 -25.894531 C 11.199219 -26.222656 11.464844 -26.421875 11.792969 -26.421875 L 35.117188 -26.421875 C 35.644531 -26.421875 36.105469 -26.882812 36.105469 -27.410156 L 36.105469 -31.953125 C 36.105469 -32.480469 35.644531 -32.941406 35.117188 -32.941406 L 9.949219 -32.941406 C 9.15625 -32.941406 8.632812 -32.746094 8.039062 -32.152344 L 2.765625 -26.882812 C 2.371094 -26.484375 1.976562 -25.828125 1.976562 -25.167969 Z M 1.976562 -20.554688 "/></g></g></g><g fill="#ff1616" fill-opacity="1"><g transform="translate(324.405865, 473.025586)"><g><path d="M 37.160156 -26.222656 L 31.363281 -32.152344 C 30.835938 -32.679688 30.242188 -32.941406 29.386719 -32.941406 L 10.476562 -32.941406 C 9.621094 -32.941406 9.027344 -32.679688 8.5 -32.152344 L 2.703125 -26.222656 C 2.238281 -25.761719 1.976562 -25.167969 1.976562 -24.507812 L 1.976562 -0.988281 C 1.976562 -0.460938 2.4375 0 2.964844 0 L 7.378906 0 C 7.90625 0 8.367188 -0.460938 8.367188 -0.988281 L 8.367188 -10.804688 L 31.492188 -10.804688 L 31.492188 -0.988281 C 31.492188 -0.460938 31.953125 0 32.480469 0 L 36.894531 0 C 37.421875 0 37.882812 -0.460938 37.882812 -0.988281 L 37.882812 -24.507812 C 37.882812 -25.167969 37.621094 -25.761719 37.160156 -26.222656 Z M 8.367188 -16.539062 L 8.367188 -22.796875 C 8.367188 -23.257812 8.5 -23.585938 8.828125 -23.917969 L 10.9375 -25.894531 L 11.332031 -26.222656 C 11.464844 -26.355469 11.660156 -26.421875 11.992188 -26.421875 L 27.871094 -26.421875 C 28.132812 -26.421875 28.332031 -26.355469 28.527344 -26.222656 L 28.925781 -25.894531 L 31.03125 -23.917969 C 31.363281 -23.585938 31.492188 -23.257812 31.492188 -22.796875 L 31.492188 -16.539062 Z M 8.367188 -16.539062 "/></g></g></g><g fill="#ff1616" fill-opacity="1"><g transform="translate(377.438121, 473.025586)"><g><path d="M 1.976562 -20.554688 C 1.976562 -19.699219 2.238281 -19.105469 2.765625 -18.578125 L 7.378906 -14.101562 C 7.839844 -13.703125 8.433594 -13.375 9.09375 -13.375 L 28.660156 -13.375 C 29.121094 -13.375 29.449219 -13.242188 29.78125 -12.914062 L 30.769531 -11.726562 C 30.902344 -11.53125 30.964844 -11.332031 30.964844 -11.070312 L 30.964844 -9.488281 C 30.964844 -9.027344 30.835938 -8.695312 30.503906 -8.367188 L 29.054688 -7.050781 C 28.660156 -6.71875 28.398438 -6.523438 28.066406 -6.523438 L 4.085938 -6.523438 C 3.558594 -6.523438 3.097656 -6.0625 3.097656 -5.535156 L 3.097656 -0.988281 C 3.097656 -0.460938 3.558594 0 4.085938 0 L 29.914062 0 C 30.703125 0 31.230469 -0.199219 31.824219 -0.789062 L 37.09375 -6.0625 C 37.488281 -6.457031 37.882812 -7.117188 37.882812 -7.773438 L 37.882812 -13.242188 C 37.882812 -14.101562 37.621094 -14.757812 37.09375 -15.21875 L 33.140625 -19.042969 C 32.679688 -19.4375 32.085938 -19.765625 31.425781 -19.765625 L 11.199219 -19.765625 C 10.738281 -19.765625 10.410156 -19.898438 10.082031 -20.226562 L 9.09375 -21.414062 C 8.960938 -21.609375 8.894531 -21.808594 8.894531 -22.070312 L 8.894531 -23.457031 C 8.894531 -23.917969 9.027344 -24.246094 9.355469 -24.574219 L 10.804688 -25.894531 C 11.199219 -26.222656 11.464844 -26.421875 11.792969 -26.421875 L 35.117188 -26.421875 C 35.644531 -26.421875 36.105469 -26.882812 36.105469 -27.410156 L 36.105469 -31.953125 C 36.105469 -32.480469 35.644531 -32.941406 35.117188 -32.941406 L 9.949219 -32.941406 C 9.15625 -32.941406 8.632812 -32.746094 8.039062 -32.152344 L 2.765625 -26.882812 C 2.371094 -26.484375 1.976562 -25.828125 1.976562 -25.167969 Z M 1.976562 -20.554688 "/></g></g></g><g fill="#ff1616" fill-opacity="1"><g transform="translate(430.470377, 473.025586)"><g/></g></g><g fill="#ff1616" fill-opacity="1"><g transform="translate(460.78002, 473.025586)"><g><path d="M 32.480469 -19.832031 L 36.894531 -19.832031 C 37.421875 -19.832031 37.882812 -20.292969 37.882812 -20.820312 L 37.882812 -24.839844 C 37.882812 -25.496094 37.621094 -26.089844 37.160156 -26.550781 L 31.363281 -32.480469 C 30.835938 -33.007812 30.242188 -33.273438 29.386719 -33.273438 L 10.609375 -33.273438 C 9.816406 -33.273438 9.289062 -33.074219 8.695312 -32.480469 L 2.765625 -26.550781 C 2.371094 -26.15625 1.976562 -25.496094 1.976562 -24.839844 L 1.976562 -8.105469 C 1.976562 -7.445312 2.371094 -6.785156 2.765625 -6.390625 L 8.695312 -0.460938 C 9.289062 0.132812 9.816406 0.328125 10.609375 0.328125 L 29.386719 0.328125 C 30.242188 0.328125 30.835938 0.0664062 31.363281 -0.460938 L 37.160156 -6.390625 C 37.621094 -6.851562 37.882812 -7.445312 37.882812 -8.105469 L 37.882812 -12.121094 C 37.882812 -12.648438 37.421875 -13.113281 36.894531 -13.113281 L 32.480469 -13.113281 C 31.953125 -13.113281 31.492188 -12.648438 31.492188 -12.121094 L 31.492188 -9.816406 C 31.492188 -9.355469 31.425781 -9.027344 31.03125 -8.695312 L 28.925781 -6.71875 C 28.59375 -6.390625 28.332031 -6.191406 27.871094 -6.191406 L 12.453125 -6.191406 C 12.121094 -6.191406 11.859375 -6.324219 11.464844 -6.71875 L 9.355469 -8.695312 C 9.027344 -9.027344 8.894531 -9.355469 8.894531 -9.816406 L 8.894531 -23.125 C 8.894531 -23.585938 9.027344 -23.917969 9.355469 -24.246094 L 11.464844 -26.222656 C 11.859375 -26.617188 12.121094 -26.75 12.453125 -26.75 L 27.871094 -26.75 C 28.332031 -26.75 28.59375 -26.550781 28.925781 -26.222656 L 31.03125 -24.246094 C 31.425781 -23.917969 31.492188 -23.585938 31.492188 -23.125 L 31.492188 -20.820312 C 31.492188 -20.292969 31.953125 -19.832031 32.480469 -19.832031 Z M 32.480469 -19.832031 "/></g></g></g><g fill="#ff1616" fill-opacity="1"><g transform="translate(513.812276, 473.025586)"><g><path d="M 2.964844 0 L 7.90625 0 C 8.433594 0 8.894531 -0.460938 8.894531 -0.988281 L 8.894531 -31.953125 C 8.894531 -32.480469 8.433594 -32.941406 7.90625 -32.941406 L 2.964844 -32.941406 C 2.4375 -32.941406 1.976562 -32.480469 1.976562 -31.953125 L 1.976562 -0.988281 C 1.976562 -0.460938 2.4375 0 2.964844 0 Z M 2.964844 0 "/></g></g></g><g fill="#ff1616" fill-opacity="1"><g transform="translate(537.864971, 473.025586)"><g><path d="M 43.8125 -32.941406 L 2.964844 -32.941406 C 2.4375 -32.941406 1.976562 -32.480469 1.976562 -31.953125 L 1.976562 -27.011719 C 1.976562 -26.484375 2.4375 -26.023438 2.964844 -26.023438 L 19.964844 -26.023438 L 19.964844 -0.988281 C 19.964844 -0.460938 20.425781 0 20.953125 0 L 25.894531 0 C 26.421875 0 26.882812 -0.460938 26.882812 -0.988281 L 26.882812 -26.023438 L 43.8125 -26.023438 C 44.339844 -26.023438 44.800781 -26.484375 44.800781 -27.011719 L 44.800781 -31.953125 C 44.800781 -32.480469 44.339844 -32.941406 43.8125 -32.941406 Z M 43.8125 -32.941406 "/></g></g></g><g fill="#ff1616" fill-opacity="1"><g transform="translate(597.812772, 473.025586)"><g><path d="M 36.894531 -32.941406 L 32.480469 -32.941406 C 31.953125 -32.941406 31.492188 -32.480469 31.492188 -31.953125 L 31.492188 -21.019531 C 31.492188 -20.554688 31.425781 -20.292969 31.03125 -19.898438 L 26.550781 -14.957031 L 26.15625 -14.625 C 25.960938 -14.496094 25.761719 -14.429688 25.496094 -14.429688 L 14.429688 -14.429688 C 14.101562 -14.429688 13.902344 -14.496094 13.769531 -14.625 L 13.375 -14.957031 L 8.828125 -19.898438 C 8.5 -20.292969 8.367188 -20.554688 8.367188 -21.019531 L 8.367188 -31.953125 C 8.367188 -32.480469 7.90625 -32.941406 7.378906 -32.941406 L 2.964844 -32.941406 C 2.4375 -32.941406 1.976562 -32.480469 1.976562 -31.953125 L 1.976562 -19.304688 C 1.976562 -18.644531 2.238281 -18.117188 2.703125 -17.589844 L 10.804688 -8.695312 C 11.332031 -8.167969 11.925781 -7.90625 12.78125 -7.90625 L 16.539062 -7.90625 L 16.539062 -0.988281 C 16.539062 -0.460938 17 0 17.527344 0 L 22.46875 0 C 22.996094 0 23.457031 -0.460938 23.457031 -0.988281 L 23.457031 -7.90625 L 27.078125 -7.90625 C 27.9375 -7.90625 28.59375 -8.167969 29.054688 -8.695312 L 37.160156 -17.589844 C 37.6875 -18.117188 37.882812 -18.644531 37.882812 -19.304688 L 37.882812 -31.953125 C 37.882812 -32.480469 37.421875 -32.941406 36.894531 -32.941406 Z M 36.894531 -32.941406 "/></g></g></g></svg>