<svg xmlns="http://www.w3.org/2000/svg" xmlns:xlink="http://www.w3.org/1999/xlink" width="840" zoomAndPan="magnify" viewBox="0 0 630 119.999999" height="160" preserveAspectRatio="xMidYMid meet" version="1.0"><defs><g/><clipPath id="11806e4db7"><path d="M 16 36.933594 L 243 36.933594 L 243 70 L 16 70 Z M 16 36.933594 " clip-rule="nonzero"/></clipPath><clipPath id="2e5e62545e"><path d="M 169 65 L 245.195312 65 L 245.195312 83.433594 L 169 83.433594 Z M 169 65 " clip-rule="nonzero"/></clipPath></defs><g clip-path="url(#11806e4db7)"><path fill="#ffffff" d="M 224.296875 60.285156 C 221.472656 59.75 218.671875 59.042969 215.921875 58.179688 C 213.171875 57.304688 210.453125 56.308594 207.761719 55.207031 C 205.074219 54.101562 202.402344 52.921875 199.726562 51.695312 L 191.636719 47.957031 C 188.902344 46.707031 186.125 45.476562 183.257812 44.308594 C 182.539062 44.019531 181.828125 43.722656 181.09375 43.449219 L 180 43.027344 L 178.894531 42.621094 C 178.164062 42.347656 177.40625 42.097656 176.660156 41.832031 C 176.285156 41.703125 175.90625 41.582031 175.527344 41.457031 C 175.148438 41.335938 174.773438 41.207031 174.386719 41.089844 C 173.621094 40.855469 172.855469 40.617188 172.074219 40.402344 C 171.683594 40.292969 171.296875 40.179688 170.902344 40.078125 L 169.722656 39.777344 C 168.933594 39.582031 168.148438 39.375 167.347656 39.210938 L 166.152344 38.949219 C 165.753906 38.867188 165.355469 38.773438 164.953125 38.707031 L 162.535156 38.269531 L 160.101562 37.902344 C 159.898438 37.875 159.695312 37.839844 159.492188 37.816406 L 158.882812 37.742188 L 157.660156 37.597656 C 157.25 37.550781 156.84375 37.496094 156.433594 37.460938 L 155.207031 37.351562 C 151.9375 37.0625 148.648438 36.929688 145.378906 36.960938 C 142.109375 36.996094 138.851562 37.15625 135.628906 37.453125 C 129.175781 38.035156 122.863281 39.136719 116.726562 40.5625 C 110.597656 42.007812 104.640625 43.785156 98.871094 45.824219 C 95.984375 46.847656 93.136719 47.917969 90.347656 49.066406 C 87.550781 50.207031 84.800781 51.402344 82.097656 52.652344 C 87.886719 50.699219 93.714844 48.855469 99.65625 47.269531 C 105.578125 45.664062 111.601562 44.3125 117.683594 43.257812 C 120.726562 42.726562 123.789062 42.304688 126.855469 41.957031 C 128.386719 41.773438 129.925781 41.640625 131.460938 41.507812 L 133.769531 41.347656 C 134.539062 41.296875 135.308594 41.269531 136.078125 41.230469 C 139.152344 41.101562 142.226562 41.074219 145.28125 41.179688 L 147.566406 41.285156 C 148.328125 41.332031 149.082031 41.394531 149.839844 41.449219 L 150.410156 41.492188 L 150.976562 41.546875 L 152.105469 41.65625 C 152.480469 41.695312 152.859375 41.726562 153.234375 41.769531 L 154.355469 41.914062 L 155.480469 42.054688 C 155.851562 42.097656 156.222656 42.167969 156.59375 42.222656 L 157.703125 42.398438 L 158.257812 42.484375 C 158.445312 42.511719 158.625 42.550781 158.808594 42.585938 L 161.007812 43 L 163.175781 43.480469 C 163.539062 43.554688 163.894531 43.652344 164.25 43.742188 L 165.320312 44.011719 C 166.039062 44.183594 166.738281 44.394531 167.441406 44.597656 L 168.492188 44.898438 C 168.839844 45.003906 169.183594 45.117188 169.53125 45.226562 C 170.226562 45.441406 170.910156 45.683594 171.597656 45.917969 C 177.082031 47.832031 182.324219 50.277344 187.585938 52.847656 C 192.847656 55.421875 198.140625 58.132812 203.820312 60.574219 C 204.90625 61.039062 206.007812 61.496094 207.125 61.9375 C 203.761719 62.199219 200.386719 62.394531 197 62.539062 L 193.789062 62.660156 L 190.570312 62.738281 C 189.5 62.769531 188.421875 62.769531 187.351562 62.785156 L 185.738281 62.800781 C 185.199219 62.808594 184.664062 62.800781 184.125 62.800781 C 179.824219 62.820312 175.515625 62.730469 171.203125 62.601562 C 166.886719 62.472656 162.570312 62.273438 158.25 62.03125 C 153.929688 61.789062 149.605469 61.507812 145.28125 61.1875 C 136.625 60.5625 127.960938 59.804688 119.273438 59.066406 C 110.582031 58.328125 101.867188 57.589844 93.117188 56.992188 L 89.835938 56.773438 C 88.742188 56.699219 87.644531 56.628906 86.546875 56.566406 C 84.355469 56.433594 82.152344 56.320312 79.953125 56.21875 C 78.851562 56.167969 77.746094 56.128906 76.644531 56.085938 L 73.328125 55.980469 C 72.222656 55.960938 71.117188 55.933594 70.007812 55.921875 L 68.34375 55.910156 C 67.792969 55.90625 67.238281 55.902344 66.683594 55.910156 C 65.574219 55.917969 64.464844 55.914062 63.355469 55.941406 L 61.691406 55.972656 C 61.136719 55.988281 60.578125 56.007812 60.023438 56.027344 L 58.363281 56.09375 L 56.699219 56.179688 C 55.589844 56.230469 54.484375 56.320312 53.378906 56.394531 C 48.953125 56.71875 44.550781 57.261719 40.226562 58.023438 C 35.898438 58.804688 31.660156 59.832031 27.589844 61.140625 C 23.519531 62.449219 19.613281 64.027344 16.003906 65.910156 C 23.804688 62.878906 32.214844 60.984375 40.738281 60.042969 C 49.277344 59.085938 57.933594 59.066406 66.542969 59.460938 C 67.082031 59.484375 67.621094 59.511719 68.160156 59.542969 L 69.773438 59.636719 C 70.851562 59.699219 71.929688 59.785156 73.003906 59.851562 L 76.234375 60.09375 C 77.3125 60.1875 78.390625 60.269531 79.464844 60.367188 C 81.621094 60.5625 83.773438 60.769531 85.929688 60.988281 C 88.085938 61.199219 90.246094 61.429688 92.402344 61.65625 C 101.03125 62.582031 109.664062 63.582031 118.324219 64.558594 C 135.636719 66.496094 153.097656 68.320312 170.808594 69.011719 C 179.660156 69.363281 188.566406 69.410156 197.476562 69.039062 C 201.929688 68.839844 206.382812 68.566406 210.824219 68.140625 C 215.265625 67.71875 219.691406 67.171875 224.085938 66.507812 L 242.441406 63.726562 Z M 224.296875 60.285156 " fill-opacity="1" fill-rule="nonzero"/></g><g clip-path="url(#2e5e62545e)"><path fill="#ff1616" d="M 175.59375 79.238281 C 182.433594 80.746094 189.371094 81.859375 196.34375 82.503906 C 205.085938 83.3125 213.996094 83.429688 222.6875 82.011719 C 226.914062 81.324219 231.101562 80.257812 235.0625 78.601562 C 238.3125 77.246094 244.460938 75.039062 245.046875 70.960938 C 245.253906 69.519531 245.3125 67.332031 243.511719 66.203125 C 241.191406 64.753906 238.078125 66.21875 235.90625 67.050781 C 233.3125 68.046875 230.757812 69.101562 227.957031 69.875 C 224.457031 70.84375 220.839844 71.648438 217.183594 72.359375 C 213.066406 73.164062 208.871094 73.886719 204.632812 74.429688 C 206.726562 74.777344 210.199219 75.253906 212.078125 75.488281 C 214.324219 75.769531 216.582031 76.019531 218.855469 76.214844 C 221.242188 76.425781 223.710938 76.582031 226.179688 76.664062 C 215.1875 78.890625 196.46875 80.839844 169.25 77.6875 C 171.390625 78.242188 173.527344 78.78125 175.59375 79.238281 Z M 175.59375 79.238281 " fill-opacity="1" fill-rule="nonzero"/></g><g fill="#ffffff" fill-opacity="1"><g transform="translate(267.009248, 54.924358)"><g><path d="M 24.722656 -20.671875 C 24.398438 -22.03125 23.847656 -23.164062 23.164062 -24.074219 C 22.453125 -24.949219 21.511719 -25.628906 20.410156 -26.050781 C 19.308594 -26.472656 18.015625 -26.699219 16.492188 -26.699219 L 5.183594 -26.699219 L 5.183594 -26.664062 C 4.246094 -26.601562 3.433594 -26.082031 2.949219 -25.304688 C 2.820312 -25.046875 2.6875 -24.753906 2.625 -24.496094 L 2.59375 -2.363281 C 2.65625 -2.007812 2.785156 -1.652344 2.949219 -1.359375 C 3.46875 -0.484375 4.40625 0.03125 5.410156 0.03125 L 16.492188 0.03125 C 18.015625 0.03125 19.34375 -0.195312 20.410156 -0.617188 C 21.511719 -1.035156 22.453125 -1.71875 23.164062 -2.625 C 23.847656 -3.5 24.398438 -4.632812 24.722656 -5.992188 C 25.046875 -7.355469 25.207031 -8.976562 25.207031 -10.789062 L 25.207031 -15.875 C 25.207031 -17.691406 25.046875 -19.308594 24.722656 -20.671875 Z M 7.355469 -4.957031 L 7.355469 -21.707031 C 7.355469 -21.835938 7.386719 -21.902344 7.417969 -21.902344 L 16.394531 -21.902344 C 17.140625 -21.902344 17.789062 -21.804688 18.304688 -21.609375 C 18.824219 -21.417969 19.214844 -21.15625 19.503906 -20.734375 C 19.828125 -20.316406 20.054688 -19.765625 20.183594 -19.082031 C 20.316406 -18.339844 20.410156 -17.429688 20.410156 -16.363281 L 20.410156 -10.304688 C 20.410156 -9.234375 20.316406 -8.328125 20.183594 -7.613281 C 20.054688 -6.902344 19.828125 -6.351562 19.503906 -5.929688 C 19.214844 -5.539062 18.824219 -5.25 18.304688 -5.054688 C 17.789062 -4.859375 17.140625 -4.796875 16.394531 -4.796875 L 7.386719 -4.796875 C 7.386719 -4.796875 7.355469 -4.828125 7.355469 -4.957031 Z M 7.355469 -4.957031 "/></g></g></g><g fill="#ffffff" fill-opacity="1"><g transform="translate(294.799845, 54.924358)"><g><path d="M 24.6875 -18.953125 C 24.6875 -18.921875 24.6875 -18.890625 24.6875 -18.855469 C 24.6875 -18.824219 24.6875 -18.792969 24.6875 -18.757812 Z M 25.304688 -1.394531 L 19.632812 -11.113281 C 21.222656 -11.308594 22.453125 -11.988281 23.261719 -13.089844 C 24.171875 -14.417969 24.65625 -16.328125 24.6875 -18.855469 C 24.65625 -21.382812 24.171875 -23.296875 23.261719 -24.625 C 22.292969 -26.015625 20.671875 -26.699219 18.46875 -26.699219 L 3.53125 -26.699219 C 3.238281 -26.699219 2.59375 -26.601562 2.59375 -25.5625 L 2.59375 -23.003906 C 2.59375 -22 3.238281 -21.902344 3.53125 -21.902344 L 17.625 -21.902344 C 18.46875 -21.902344 19.019531 -21.675781 19.34375 -21.191406 C 19.699219 -20.703125 19.859375 -19.925781 19.859375 -18.855469 C 19.859375 -17.789062 19.699219 -17.011719 19.34375 -16.523438 C 19.019531 -16.039062 18.46875 -15.8125 17.625 -15.8125 L 3.53125 -15.8125 C 3.238281 -15.8125 2.59375 -15.714844 2.59375 -14.710938 L 2.59375 -1.101562 C 2.59375 -0.0976562 3.238281 0.03125 3.53125 0.03125 L 6.480469 0.03125 C 6.773438 0.03125 7.386719 -0.0976562 7.386719 -1.101562 L 7.386719 -11.015625 L 14.222656 -11.015625 L 20.089844 -0.617188 C 20.21875 -0.421875 20.316406 -0.257812 20.445312 -0.160156 C 20.605469 -0.03125 20.832031 0.03125 21.125 0.03125 L 24.6875 0.03125 C 25.078125 0.03125 25.371094 -0.226562 25.433594 -0.617188 C 25.464844 -0.941406 25.433594 -1.199219 25.304688 -1.394531 Z M 25.304688 -1.394531 "/></g></g></g><g fill="#ffffff" fill-opacity="1"><g transform="translate(322.84957, 54.924358)"><g><path d="M 6.480469 -26.699219 L 3.5 -26.699219 C 3.238281 -26.699219 2.59375 -26.566406 2.59375 -25.5625 L 2.59375 -1.101562 C 2.59375 -0.0976562 3.238281 0.03125 3.5 0.03125 L 6.480469 0.03125 C 6.738281 0.03125 7.386719 -0.0976562 7.386719 -1.101562 L 7.386719 -25.5625 C 7.386719 -26.566406 6.738281 -26.699219 6.480469 -26.699219 Z M 6.480469 -26.699219 "/></g></g></g><g fill="#ffffff" fill-opacity="1"><g transform="translate(332.825275, 54.924358)"><g><path d="M 18.46875 -26.699219 L 3.5 -26.699219 C 3.238281 -26.699219 2.59375 -26.601562 2.59375 -25.5625 L 2.59375 -23.003906 C 2.59375 -22 3.238281 -21.902344 3.5 -21.902344 L 17.625 -21.902344 C 18.4375 -21.902344 19.019531 -21.675781 19.34375 -21.191406 C 19.699219 -20.703125 19.859375 -19.925781 19.859375 -18.855469 C 19.859375 -17.789062 19.699219 -17.011719 19.34375 -16.523438 C 19.019531 -16.039062 18.4375 -15.8125 17.625 -15.8125 L 3.5 -15.8125 C 3.238281 -15.8125 2.59375 -15.714844 2.59375 -14.710938 L 2.59375 -1.101562 C 2.59375 -0.0976562 3.238281 0.03125 3.5 0.03125 L 6.480469 0.03125 C 6.738281 0.03125 7.386719 -0.0976562 7.386719 -1.101562 L 7.386719 -11.015625 L 18.46875 -11.046875 C 20.671875 -11.046875 22.257812 -11.730469 23.230469 -13.089844 C 24.203125 -14.449219 24.65625 -16.394531 24.65625 -18.953125 L 24.65625 -18.757812 C 24.65625 -21.351562 24.203125 -23.296875 23.230469 -24.625 C 22.257812 -26.015625 20.671875 -26.699219 18.46875 -26.699219 Z M 18.46875 -26.699219 "/></g></g></g><g fill="#ffffff" fill-opacity="1"><g transform="translate(360.065228, 54.924358)"><g/></g></g><g fill="#ffffff" fill-opacity="1"><g transform="translate(376.713428, 54.924358)"><g><path d="M 24.722656 -20.671875 C 24.398438 -22.03125 23.847656 -23.164062 23.164062 -24.074219 C 22.453125 -24.949219 21.511719 -25.628906 20.410156 -26.050781 C 19.308594 -26.472656 18.015625 -26.699219 16.492188 -26.699219 L 5.183594 -26.699219 L 5.183594 -26.664062 C 4.246094 -26.601562 3.433594 -26.082031 2.949219 -25.304688 C 2.820312 -25.046875 2.6875 -24.753906 2.625 -24.496094 L 2.59375 -2.363281 C 2.65625 -2.007812 2.785156 -1.652344 2.949219 -1.359375 C 3.46875 -0.484375 4.40625 0.03125 5.410156 0.03125 L 16.492188 0.03125 C 18.015625 0.03125 19.34375 -0.195312 20.410156 -0.617188 C 21.511719 -1.035156 22.453125 -1.71875 23.164062 -2.625 C 23.847656 -3.5 24.398438 -4.632812 24.722656 -5.992188 C 25.046875 -7.355469 25.207031 -8.976562 25.207031 -10.789062 L 25.207031 -15.875 C 25.207031 -17.691406 25.046875 -19.308594 24.722656 -20.671875 Z M 7.355469 -4.957031 L 7.355469 -21.707031 C 7.355469 -21.835938 7.386719 -21.902344 7.417969 -21.902344 L 16.394531 -21.902344 C 17.140625 -21.902344 17.789062 -21.804688 18.304688 -21.609375 C 18.824219 -21.417969 19.214844 -21.15625 19.503906 -20.734375 C 19.828125 -20.316406 20.054688 -19.765625 20.183594 -19.082031 C 20.316406 -18.339844 20.410156 -17.429688 20.410156 -16.363281 L 20.410156 -10.304688 C 20.410156 -9.234375 20.316406 -8.328125 20.183594 -7.613281 C 20.054688 -6.902344 19.828125 -6.351562 19.503906 -5.929688 C 19.214844 -5.539062 18.824219 -5.25 18.304688 -5.054688 C 17.789062 -4.859375 17.140625 -4.796875 16.394531 -4.796875 L 7.386719 -4.796875 C 7.386719 -4.796875 7.355469 -4.828125 7.355469 -4.957031 Z M 7.355469 -4.957031 "/></g></g></g><g fill="#ffffff" fill-opacity="1"><g transform="translate(404.50403, 54.924358)"><g><path d="M 22.0625 -5.800781 L 10.660156 -5.800781 C 9.980469 -5.800781 9.429688 -5.898438 8.976562 -6.027344 C 8.554688 -6.1875 8.261719 -6.414062 8.003906 -6.738281 C 7.742188 -7.09375 7.550781 -7.582031 7.453125 -8.195312 C 7.417969 -8.359375 7.417969 -8.585938 7.386719 -8.746094 C 7.386719 -8.746094 7.417969 -11.082031 7.453125 -11.082031 L 21.933594 -11.082031 C 22.195312 -11.082031 22.84375 -11.210938 22.84375 -12.214844 L 22.84375 -14.773438 C 22.84375 -15.777344 22.195312 -15.875 21.933594 -15.875 L 5.214844 -15.84375 C 4.277344 -15.777344 3.46875 -15.292969 3.011719 -14.484375 C 2.851562 -14.222656 2.722656 -13.964844 2.65625 -13.671875 L 2.59375 -9.589844 L 2.59375 -9.429688 C 2.625 -7.90625 2.785156 -6.609375 3.011719 -5.539062 C 3.304688 -4.246094 3.789062 -3.175781 4.40625 -2.363281 C 5.054688 -1.523438 5.898438 -0.941406 6.933594 -0.582031 C 7.9375 -0.195312 9.136719 -0.03125 10.5625 -0.03125 L 22.0625 -0.03125 C 22.355469 -0.03125 23.003906 -0.128906 23.003906 -1.132812 L 23.003906 -4.699219 C 23.003906 -5.703125 22.355469 -5.800781 22.0625 -5.800781 Z M 22.097656 -26.761719 L 3.46875 -26.761719 C 3.207031 -26.761719 2.59375 -26.632812 2.59375 -25.597656 L 2.59375 -23.070312 C 2.59375 -22.0625 3.207031 -21.96875 3.46875 -21.96875 L 22.097656 -21.933594 C 22.355469 -21.933594 23.003906 -22.0625 23.003906 -23.070312 L 23.003906 -25.628906 C 23.003906 -26.632812 22.355469 -26.761719 22.097656 -26.761719 Z M 22.097656 -26.761719 "/></g></g></g><g fill="#ffffff" fill-opacity="1"><g transform="translate(430.092057, 54.924358)"><g><path d="M 24.980469 -26.699219 L 3.53125 -26.699219 C 3.238281 -26.699219 2.59375 -26.601562 2.59375 -25.597656 L 2.59375 -23.070312 C 2.59375 -22 3.238281 -21.902344 3.53125 -21.902344 L 11.859375 -21.902344 L 11.859375 -1.101562 C 11.859375 -0.0976562 12.507812 0 12.765625 0 L 15.746094 0 C 16.039062 0 16.652344 -0.0976562 16.652344 -1.101562 L 16.652344 -21.902344 L 24.980469 -21.902344 C 25.273438 -21.902344 25.921875 -22 25.921875 -23.070312 L 25.921875 -25.597656 C 25.921875 -26.601562 25.273438 -26.699219 24.980469 -26.699219 Z M 24.980469 -26.699219 "/></g></g></g><g fill="#ffffff" fill-opacity="1"><g transform="translate(458.595259, 54.924358)"><g><path d="M 19.957031 -23.683594 C 19.894531 -23.847656 19.828125 -24.039062 19.765625 -24.171875 C 19.246094 -25.855469 17.691406 -27.054688 15.910156 -27.054688 C 15.097656 -27.054688 14.320312 -26.828125 13.671875 -26.375 C 13.476562 -26.277344 13.316406 -26.148438 13.1875 -26.050781 C 12.699219 -25.628906 12.214844 -24.851562 11.761719 -23.683594 L 2.722656 -1.230469 C 2.625 -0.941406 2.59375 -0.648438 2.65625 -0.453125 C 2.6875 -0.257812 2.851562 0.03125 3.371094 0.03125 L 6.933594 0.03125 C 7.355469 0.03125 7.679688 -0.226562 7.839844 -0.648438 L 9.6875 -5.28125 L 16.78125 -5.28125 C 17.140625 -5.28125 17.464844 -5.441406 17.625 -5.734375 C 17.820312 -5.992188 17.851562 -6.351562 17.753906 -6.675781 L 16.589844 -9.558594 C 16.425781 -9.945312 16.070312 -10.207031 15.648438 -10.207031 L 11.632812 -10.207031 L 15.777344 -20.703125 C 15.8125 -20.769531 15.84375 -20.800781 15.84375 -20.800781 L 15.972656 -20.800781 C 15.972656 -20.800781 15.972656 -20.800781 16.003906 -20.734375 L 24.039062 -0.679688 C 24.203125 -0.226562 24.527344 0.03125 24.980469 0.03125 L 28.445312 0.03125 C 28.964844 0.03125 29.09375 -0.292969 29.160156 -0.453125 C 29.226562 -0.648438 29.191406 -0.941406 29.0625 -1.230469 Z M 19.957031 -23.683594 "/></g></g></g><g fill="#ffffff" fill-opacity="1"><g transform="translate(490.402302, 54.924358)"><g><path d="M 6.480469 -26.699219 L 3.5 -26.699219 C 3.238281 -26.699219 2.59375 -26.566406 2.59375 -25.5625 L 2.59375 -1.101562 C 2.59375 -0.0976562 3.238281 0.03125 3.5 0.03125 L 6.480469 0.03125 C 6.738281 0.03125 7.386719 -0.0976562 7.386719 -1.101562 L 7.386719 -25.5625 C 7.386719 -26.566406 6.738281 -26.699219 6.480469 -26.699219 Z M 6.480469 -26.699219 "/></g></g></g><g fill="#ffffff" fill-opacity="1"><g transform="translate(500.378002, 54.924358)"><g><path d="M 21.285156 -4.796875 L 10.757812 -4.796875 C 10.078125 -4.796875 9.527344 -4.859375 9.070312 -5.023438 C 8.683594 -5.152344 8.359375 -5.378906 8.132812 -5.734375 C 7.875 -6.089844 7.679688 -6.578125 7.582031 -7.160156 C 7.453125 -7.808594 7.417969 -8.617188 7.417969 -9.589844 L 7.417969 -25.5625 C 7.417969 -26.601562 6.773438 -26.699219 6.511719 -26.699219 L 3.53125 -26.699219 C 3.238281 -26.699219 2.59375 -26.601562 2.59375 -25.5625 L 2.59375 -10.140625 C 2.59375 -8.328125 2.753906 -6.773438 3.046875 -5.507812 C 3.335938 -4.210938 3.789062 -3.144531 4.4375 -2.332031 C 5.085938 -1.492188 5.929688 -0.875 6.964844 -0.519531 C 7.9375 -0.160156 9.167969 0.03125 10.59375 0.03125 L 21.285156 0.03125 C 21.578125 0.03125 22.195312 -0.0976562 22.195312 -1.101562 L 22.195312 -3.660156 C 22.195312 -4.664062 21.578125 -4.796875 21.285156 -4.796875 Z M 21.285156 -4.796875 "/></g></g></g><g fill="#ffffff" fill-opacity="1"><g transform="translate(525.156267, 54.924358)"><g><path d="M 6.480469 -26.699219 L 3.5 -26.699219 C 3.238281 -26.699219 2.59375 -26.566406 2.59375 -25.5625 L 2.59375 -1.101562 C 2.59375 -0.0976562 3.238281 0.03125 3.5 0.03125 L 6.480469 0.03125 C 6.738281 0.03125 7.386719 -0.0976562 7.386719 -1.101562 L 7.386719 -25.5625 C 7.386719 -26.566406 6.738281 -26.699219 6.480469 -26.699219 Z M 6.480469 -26.699219 "/></g></g></g><g fill="#ffffff" fill-opacity="1"><g transform="translate(535.131967, 54.924358)"><g><path d="M 25.53125 -26.699219 L 22.648438 -26.699219 C 22.355469 -26.699219 21.742188 -26.601562 21.742188 -25.5625 L 21.742188 -6.089844 C 21.742188 -6.058594 21.742188 -6.058594 21.742188 -6.027344 L 21.578125 -6.027344 C 21.546875 -6.027344 21.511719 -6.027344 21.480469 -6.125 L 11.242188 -24.332031 C 10.984375 -24.820312 10.757812 -25.207031 10.53125 -25.5 C 10.304688 -25.824219 10.078125 -26.082031 9.847656 -26.242188 C 9.589844 -26.4375 9.296875 -26.566406 8.941406 -26.632812 C 8.617188 -26.664062 8.230469 -26.699219 7.808594 -26.699219 L 5.378906 -26.699219 C 4.4375 -26.699219 3.726562 -26.375 3.273438 -25.789062 C 2.820312 -25.175781 2.59375 -24.105469 2.59375 -22.519531 L 2.59375 -1.101562 C 2.59375 -0.0976562 3.238281 0.03125 3.53125 0.03125 L 6.414062 0.03125 C 6.707031 0.03125 7.324219 -0.0976562 7.324219 -1.101562 L 7.324219 -20.574219 C 7.324219 -20.605469 7.324219 -20.640625 7.324219 -20.640625 L 7.484375 -20.640625 C 7.484375 -20.640625 7.515625 -20.640625 7.582031 -20.542969 L 17.851562 -2.332031 C 18.113281 -1.8125 18.371094 -1.425781 18.597656 -1.132812 C 18.824219 -0.808594 19.050781 -0.582031 19.308594 -0.421875 C 19.570312 -0.226562 19.859375 -0.128906 20.183594 -0.0664062 C 20.476562 0 20.832031 0.03125 21.285156 0.03125 L 23.652344 0.03125 C 24.589844 0.03125 25.304688 -0.292969 25.757812 -0.90625 C 26.210938 -1.492188 26.4375 -2.558594 26.4375 -4.148438 L 26.4375 -25.5625 C 26.4375 -26.601562 25.789062 -26.699219 25.53125 -26.699219 Z M 25.53125 -26.699219 "/></g></g></g><g fill="#ffffff" fill-opacity="1"><g transform="translate(564.153404, 54.924358)"><g><path d="M 24.527344 -26.699219 L 10.59375 -26.699219 C 9.167969 -26.699219 7.9375 -26.503906 6.933594 -26.148438 C 5.929688 -25.757812 5.054688 -25.140625 4.4375 -24.332031 C 3.789062 -23.488281 3.304688 -22.453125 3.011719 -21.15625 C 2.722656 -19.894531 2.59375 -18.339844 2.59375 -16.554688 L 2.59375 -10.140625 C 2.59375 -8.328125 2.722656 -6.773438 3.011719 -5.476562 C 3.304688 -4.210938 3.789062 -3.144531 4.4375 -2.300781 C 5.085938 -1.492188 5.929688 -0.875 6.933594 -0.519531 C 7.9375 -0.160156 9.167969 0.03125 10.59375 0.03125 L 21.675781 0.03125 C 22.875 0.03125 23.8125 -0.453125 24.460938 -1.394531 C 25.078125 -2.300781 25.402344 -3.824219 25.402344 -5.992188 L 25.402344 -14.675781 C 25.402344 -15.910156 24.6875 -16.101562 24.269531 -16.101562 L 12.796875 -16.101562 C 12.539062 -16.101562 11.890625 -15.972656 11.890625 -14.9375 L 11.890625 -12.472656 C 11.890625 -11.40625 12.539062 -11.308594 12.796875 -11.308594 L 20.867188 -11.308594 C 20.867188 -11.308594 20.898438 -6.773438 20.898438 -6.773438 C 20.898438 -5.765625 20.734375 -5.347656 20.605469 -5.152344 C 20.445312 -4.890625 20.183594 -4.796875 19.828125 -4.796875 L 10.757812 -4.796875 C 10.078125 -4.796875 9.492188 -4.859375 9.070312 -5.023438 C 8.652344 -5.152344 8.359375 -5.378906 8.101562 -5.734375 C 7.875 -6.058594 7.679688 -6.542969 7.582031 -7.160156 C 7.453125 -7.808594 7.386719 -8.617188 7.386719 -9.589844 L 7.386719 -17.105469 C 7.386719 -18.078125 7.453125 -18.890625 7.582031 -19.539062 C 7.679688 -20.121094 7.875 -20.605469 8.101562 -20.960938 C 8.359375 -21.285156 8.652344 -21.511719 9.070312 -21.675781 C 9.492188 -21.804688 10.078125 -21.902344 10.757812 -21.902344 L 24.527344 -21.902344 C 24.785156 -21.902344 25.433594 -22 25.433594 -23.035156 L 25.433594 -25.5625 C 25.433594 -26.566406 24.785156 -26.699219 24.527344 -26.699219 Z M 24.527344 -26.699219 "/></g></g></g><g fill="#ff1616" fill-opacity="1"><g transform="translate(353.514866, 83.665824)"><g><path d="M 11.089844 -7.867188 L 11.089844 -9.351562 C 11.089844 -9.507812 10.953125 -9.640625 10.800781 -9.640625 L 9.351562 -9.640625 C 9.199219 -9.640625 9.0625 -9.507812 9.0625 -9.351562 L 9.0625 -8.195312 L 7.675781 -5.785156 L 2.601562 -5.785156 L 2.601562 -9.351562 C 2.601562 -9.507812 2.46875 -9.640625 2.3125 -9.640625 L 0.867188 -9.640625 C 0.714844 -9.640625 0.578125 -9.507812 0.578125 -9.351562 L 0.578125 -0.289062 C 0.578125 -0.136719 0.714844 0 0.867188 0 L 2.3125 0 C 2.46875 0 2.601562 -0.136719 2.601562 -0.289062 L 2.601562 -3.722656 L 7.808594 -3.722656 C 7.945312 -3.722656 8.042969 -3.683594 8.136719 -3.585938 L 8.910156 -2.777344 L 9.003906 -2.660156 C 9.042969 -2.601562 9.0625 -2.546875 9.0625 -2.46875 L 9.0625 -0.289062 C 9.0625 -0.136719 9.199219 0 9.351562 0 L 10.800781 0 C 10.953125 0 11.089844 -0.136719 11.089844 -0.289062 L 11.089844 -3.296875 C 11.089844 -3.546875 11.011719 -3.722656 10.855469 -3.875 L 9.621094 -5.089844 L 10.972656 -7.445312 C 11.050781 -7.558594 11.089844 -7.734375 11.089844 -7.867188 Z M 11.089844 -7.867188 "/></g></g></g><g fill="#ff1616" fill-opacity="1"><g transform="translate(369.036506, 83.665824)"><g><path d="M 10.875 -7.675781 L 9.179688 -9.410156 C 9.023438 -9.566406 8.851562 -9.640625 8.601562 -9.640625 L 3.066406 -9.640625 C 2.816406 -9.640625 2.640625 -9.566406 2.488281 -9.410156 L 0.789062 -7.675781 C 0.65625 -7.539062 0.578125 -7.367188 0.578125 -7.171875 L 0.578125 -0.289062 C 0.578125 -0.136719 0.714844 0 0.867188 0 L 2.160156 0 C 2.3125 0 2.449219 -0.136719 2.449219 -0.289062 L 2.449219 -3.164062 L 9.21875 -3.164062 L 9.21875 -0.289062 C 9.21875 -0.136719 9.351562 0 9.507812 0 L 10.800781 0 C 10.953125 0 11.089844 -0.136719 11.089844 -0.289062 L 11.089844 -7.171875 C 11.089844 -7.367188 11.011719 -7.539062 10.875 -7.675781 Z M 2.449219 -4.839844 L 2.449219 -6.671875 C 2.449219 -6.808594 2.488281 -6.902344 2.585938 -7 L 3.199219 -7.578125 L 3.316406 -7.675781 C 3.355469 -7.714844 3.414062 -7.734375 3.507812 -7.734375 L 8.15625 -7.734375 C 8.234375 -7.734375 8.292969 -7.714844 8.351562 -7.675781 L 8.464844 -7.578125 L 9.082031 -7 C 9.179688 -6.902344 9.21875 -6.808594 9.21875 -6.671875 L 9.21875 -4.839844 Z M 2.449219 -4.839844 "/></g></g></g><g fill="#ff1616" fill-opacity="1"><g transform="translate(384.558145, 83.665824)"><g><path d="M 0.578125 -0.289062 C 0.578125 -0.136719 0.714844 0 0.867188 0 L 2.160156 0 C 2.3125 0 2.449219 -0.136719 2.449219 -0.289062 L 2.449219 -7.734375 L 7.636719 -7.734375 C 7.714844 -7.734375 7.769531 -7.714844 7.828125 -7.675781 L 9.082031 -6.480469 C 9.179688 -6.382812 9.21875 -6.285156 9.21875 -6.152344 L 9.21875 -0.289062 C 9.21875 -0.136719 9.351562 0 9.507812 0 L 10.800781 0 C 10.953125 0 11.089844 -0.136719 11.089844 -0.289062 L 11.089844 -6.691406 C 11.089844 -6.882812 11.011719 -7.058594 10.875 -7.191406 L 8.695312 -9.410156 C 8.542969 -9.566406 8.371094 -9.640625 8.117188 -9.640625 L 1.175781 -9.640625 C 0.847656 -9.640625 0.578125 -9.390625 0.578125 -9.0625 Z M 0.578125 -0.289062 "/></g></g></g><g fill="#ff1616" fill-opacity="1"><g transform="translate(400.079782, 83.665824)"><g><path d="M 0.578125 -6.015625 C 0.578125 -5.765625 0.65625 -5.59375 0.808594 -5.4375 L 2.160156 -4.125 C 2.292969 -4.011719 2.46875 -3.914062 2.660156 -3.914062 L 8.386719 -3.914062 C 8.523438 -3.914062 8.621094 -3.875 8.714844 -3.78125 L 9.003906 -3.433594 C 9.042969 -3.375 9.0625 -3.316406 9.0625 -3.238281 L 9.0625 -2.777344 C 9.0625 -2.640625 9.023438 -2.546875 8.929688 -2.449219 L 8.503906 -2.0625 C 8.386719 -1.96875 8.3125 -1.910156 8.214844 -1.910156 L 1.195312 -1.910156 C 1.042969 -1.910156 0.90625 -1.773438 0.90625 -1.621094 L 0.90625 -0.289062 C 0.90625 -0.136719 1.042969 0 1.195312 0 L 8.753906 0 C 8.984375 0 9.140625 -0.0585938 9.3125 -0.230469 L 10.855469 -1.773438 C 10.972656 -1.890625 11.089844 -2.082031 11.089844 -2.277344 L 11.089844 -3.875 C 11.089844 -4.125 11.011719 -4.320312 10.855469 -4.453125 L 9.699219 -5.574219 C 9.566406 -5.6875 9.390625 -5.785156 9.199219 -5.785156 L 3.277344 -5.785156 C 3.144531 -5.785156 3.046875 -5.824219 2.949219 -5.921875 L 2.660156 -6.265625 C 2.621094 -6.324219 2.601562 -6.382812 2.601562 -6.460938 L 2.601562 -6.863281 C 2.601562 -7 2.640625 -7.097656 2.738281 -7.191406 L 3.164062 -7.578125 C 3.277344 -7.675781 3.355469 -7.734375 3.453125 -7.734375 L 10.277344 -7.734375 C 10.433594 -7.734375 10.566406 -7.867188 10.566406 -8.023438 L 10.566406 -9.351562 C 10.566406 -9.507812 10.433594 -9.640625 10.277344 -9.640625 L 2.910156 -9.640625 C 2.679688 -9.640625 2.527344 -9.585938 2.351562 -9.410156 L 0.808594 -7.867188 C 0.695312 -7.753906 0.578125 -7.558594 0.578125 -7.367188 Z M 0.578125 -6.015625 "/></g></g></g><g fill="#ff1616" fill-opacity="1"><g transform="translate(415.601424, 83.665824)"><g><path d="M 10.875 -7.675781 L 9.179688 -9.410156 C 9.023438 -9.566406 8.851562 -9.640625 8.601562 -9.640625 L 3.066406 -9.640625 C 2.816406 -9.640625 2.640625 -9.566406 2.488281 -9.410156 L 0.789062 -7.675781 C 0.65625 -7.539062 0.578125 -7.367188 0.578125 -7.171875 L 0.578125 -0.289062 C 0.578125 -0.136719 0.714844 0 0.867188 0 L 2.160156 0 C 2.3125 0 2.449219 -0.136719 2.449219 -0.289062 L 2.449219 -3.164062 L 9.21875 -3.164062 L 9.21875 -0.289062 C 9.21875 -0.136719 9.351562 0 9.507812 0 L 10.800781 0 C 10.953125 0 11.089844 -0.136719 11.089844 -0.289062 L 11.089844 -7.171875 C 11.089844 -7.367188 11.011719 -7.539062 10.875 -7.675781 Z M 2.449219 -4.839844 L 2.449219 -6.671875 C 2.449219 -6.808594 2.488281 -6.902344 2.585938 -7 L 3.199219 -7.578125 L 3.316406 -7.675781 C 3.355469 -7.714844 3.414062 -7.734375 3.507812 -7.734375 L 8.15625 -7.734375 C 8.234375 -7.734375 8.292969 -7.714844 8.351562 -7.675781 L 8.464844 -7.578125 L 9.082031 -7 C 9.179688 -6.902344 9.21875 -6.808594 9.21875 -6.671875 L 9.21875 -4.839844 Z M 2.449219 -4.839844 "/></g></g></g><g fill="#ff1616" fill-opacity="1"><g transform="translate(431.123066, 83.665824)"><g><path d="M 0.578125 -6.015625 C 0.578125 -5.765625 0.65625 -5.59375 0.808594 -5.4375 L 2.160156 -4.125 C 2.292969 -4.011719 2.46875 -3.914062 2.660156 -3.914062 L 8.386719 -3.914062 C 8.523438 -3.914062 8.621094 -3.875 8.714844 -3.78125 L 9.003906 -3.433594 C 9.042969 -3.375 9.0625 -3.316406 9.0625 -3.238281 L 9.0625 -2.777344 C 9.0625 -2.640625 9.023438 -2.546875 8.929688 -2.449219 L 8.503906 -2.0625 C 8.386719 -1.96875 8.3125 -1.910156 8.214844 -1.910156 L 1.195312 -1.910156 C 1.042969 -1.910156 0.90625 -1.773438 0.90625 -1.621094 L 0.90625 -0.289062 C 0.90625 -0.136719 1.042969 0 1.195312 0 L 8.753906 0 C 8.984375 0 9.140625 -0.0585938 9.3125 -0.230469 L 10.855469 -1.773438 C 10.972656 -1.890625 11.089844 -2.082031 11.089844 -2.277344 L 11.089844 -3.875 C 11.089844 -4.125 11.011719 -4.320312 10.855469 -4.453125 L 9.699219 -5.574219 C 9.566406 -5.6875 9.390625 -5.785156 9.199219 -5.785156 L 3.277344 -5.785156 C 3.144531 -5.785156 3.046875 -5.824219 2.949219 -5.921875 L 2.660156 -6.265625 C 2.621094 -6.324219 2.601562 -6.382812 2.601562 -6.460938 L 2.601562 -6.863281 C 2.601562 -7 2.640625 -7.097656 2.738281 -7.191406 L 3.164062 -7.578125 C 3.277344 -7.675781 3.355469 -7.734375 3.453125 -7.734375 L 10.277344 -7.734375 C 10.433594 -7.734375 10.566406 -7.867188 10.566406 -8.023438 L 10.566406 -9.351562 C 10.566406 -9.507812 10.433594 -9.640625 10.277344 -9.640625 L 2.910156 -9.640625 C 2.679688 -9.640625 2.527344 -9.585938 2.351562 -9.410156 L 0.808594 -7.867188 C 0.695312 -7.753906 0.578125 -7.558594 0.578125 -7.367188 Z M 0.578125 -6.015625 "/></g></g></g><g fill="#ff1616" fill-opacity="1"><g transform="translate(446.644708, 83.665824)"><g/></g></g><g fill="#ff1616" fill-opacity="1"><g transform="translate(455.515826, 83.665824)"><g><path d="M 9.507812 -5.804688 L 10.800781 -5.804688 C 10.953125 -5.804688 11.089844 -5.9375 11.089844 -6.09375 L 11.089844 -7.269531 C 11.089844 -7.460938 11.011719 -7.636719 10.875 -7.769531 L 9.179688 -9.507812 C 9.023438 -9.660156 8.851562 -9.738281 8.601562 -9.738281 L 3.105469 -9.738281 C 2.875 -9.738281 2.71875 -9.679688 2.546875 -9.507812 L 0.808594 -7.769531 C 0.695312 -7.65625 0.578125 -7.460938 0.578125 -7.269531 L 0.578125 -2.371094 C 0.578125 -2.179688 0.695312 -1.984375 0.808594 -1.871094 L 2.546875 -0.136719 C 2.71875 0.0390625 2.875 0.0976562 3.105469 0.0976562 L 8.601562 0.0976562 C 8.851562 0.0976562 9.023438 0.0195312 9.179688 -0.136719 L 10.875 -1.871094 C 11.011719 -2.003906 11.089844 -2.179688 11.089844 -2.371094 L 11.089844 -3.546875 C 11.089844 -3.703125 10.953125 -3.835938 10.800781 -3.835938 L 9.507812 -3.835938 C 9.351562 -3.835938 9.21875 -3.703125 9.21875 -3.546875 L 9.21875 -2.875 C 9.21875 -2.738281 9.199219 -2.640625 9.082031 -2.546875 L 8.464844 -1.96875 C 8.371094 -1.871094 8.292969 -1.8125 8.15625 -1.8125 L 3.644531 -1.8125 C 3.546875 -1.8125 3.472656 -1.851562 3.355469 -1.96875 L 2.738281 -2.546875 C 2.640625 -2.640625 2.601562 -2.738281 2.601562 -2.875 L 2.601562 -6.769531 C 2.601562 -6.902344 2.640625 -7 2.738281 -7.097656 L 3.355469 -7.675781 C 3.472656 -7.789062 3.546875 -7.828125 3.644531 -7.828125 L 8.15625 -7.828125 C 8.292969 -7.828125 8.371094 -7.769531 8.464844 -7.675781 L 9.082031 -7.097656 C 9.199219 -7 9.21875 -6.902344 9.21875 -6.769531 L 9.21875 -6.09375 C 9.21875 -5.9375 9.351562 -5.804688 9.507812 -5.804688 Z M 9.507812 -5.804688 "/></g></g></g><g fill="#ff1616" fill-opacity="1"><g transform="translate(471.037468, 83.665824)"><g><path d="M 0.867188 0 L 2.3125 0 C 2.46875 0 2.601562 -0.136719 2.601562 -0.289062 L 2.601562 -9.351562 C 2.601562 -9.507812 2.46875 -9.640625 2.3125 -9.640625 L 0.867188 -9.640625 C 0.714844 -9.640625 0.578125 -9.507812 0.578125 -9.351562 L 0.578125 -0.289062 C 0.578125 -0.136719 0.714844 0 0.867188 0 Z M 0.867188 0 "/></g></g></g><g fill="#ff1616" fill-opacity="1"><g transform="translate(478.077284, 83.665824)"><g><path d="M 12.824219 -9.640625 L 0.867188 -9.640625 C 0.714844 -9.640625 0.578125 -9.507812 0.578125 -9.351562 L 0.578125 -7.90625 C 0.578125 -7.753906 0.714844 -7.617188 0.867188 -7.617188 L 5.84375 -7.617188 L 5.84375 -0.289062 C 5.84375 -0.136719 5.976562 0 6.132812 0 L 7.578125 0 C 7.734375 0 7.867188 -0.136719 7.867188 -0.289062 L 7.867188 -7.617188 L 12.824219 -7.617188 C 12.976562 -7.617188 13.113281 -7.753906 13.113281 -7.90625 L 13.113281 -9.351562 C 13.113281 -9.507812 12.976562 -9.640625 12.824219 -9.640625 Z M 12.824219 -9.640625 "/></g></g></g><g fill="#ff1616" fill-opacity="1"><g transform="translate(495.622988, 83.665824)"><g><path d="M 10.800781 -9.640625 L 9.507812 -9.640625 C 9.351562 -9.640625 9.21875 -9.507812 9.21875 -9.351562 L 9.21875 -6.152344 C 9.21875 -6.015625 9.199219 -5.9375 9.082031 -5.824219 L 7.769531 -4.378906 L 7.65625 -4.28125 C 7.597656 -4.242188 7.539062 -4.222656 7.460938 -4.222656 L 4.222656 -4.222656 C 4.125 -4.222656 4.070312 -4.242188 4.03125 -4.28125 L 3.914062 -4.378906 L 2.585938 -5.824219 C 2.488281 -5.9375 2.449219 -6.015625 2.449219 -6.152344 L 2.449219 -9.351562 C 2.449219 -9.507812 2.3125 -9.640625 2.160156 -9.640625 L 0.867188 -9.640625 C 0.714844 -9.640625 0.578125 -9.507812 0.578125 -9.351562 L 0.578125 -5.648438 C 0.578125 -5.457031 0.65625 -5.304688 0.789062 -5.148438 L 3.164062 -2.546875 C 3.316406 -2.390625 3.492188 -2.3125 3.742188 -2.3125 L 4.839844 -2.3125 L 4.839844 -0.289062 C 4.839844 -0.136719 4.976562 0 5.128906 0 L 6.574219 0 C 6.730469 0 6.863281 -0.136719 6.863281 -0.289062 L 6.863281 -2.3125 L 7.925781 -2.3125 C 8.175781 -2.3125 8.371094 -2.390625 8.503906 -2.546875 L 10.875 -5.148438 C 11.03125 -5.304688 11.089844 -5.457031 11.089844 -5.648438 L 11.089844 -9.351562 C 11.089844 -9.507812 10.953125 -9.640625 10.800781 -9.640625 Z M 10.800781 -9.640625 "/></g></g></g></svg>